<?xml version="1.0" encoding="utf-8"?>
<!-- Generator: Adobe Illustrator 26.0.3, SVG Export Plug-In . SVG Version: 6.00 Build 0)  -->
<svg version="1.1" id="Ebene_1" xmlns="http://www.w3.org/2000/svg" xmlns:xlink="http://www.w3.org/1999/xlink" x="0px" y="0px"
	 viewBox="0 0 308 100" style="enable-background:new 0 0 308 100;" xml:space="preserve">
<style type="text/css">
	.st0{fill:#07262D;}
	.st1{fill:#1964FF;}
</style>
<path class="st0" d="M36.1,73.7c-4.6,0-8-0.5-11.6-1.4V30.8c-1.6-0.3-3.7-0.5-5.6-0.7v-4.3c3.7-0.4,8.3-0.7,12.6-0.5v15
	c0,1.9-0.2,4.5-0.5,6.2h0.1c1.7-4.1,5.6-6.6,10.3-6.6c7.7,0,12,5.5,12,15.3C53.4,66.5,47,73.7,36.1,73.7z M39.6,45.8
	c-5.2,0-8,6.1-8,11.6v10.1c1.4,0.5,3.1,0.7,5.2,0.7c5.5,0,9.3-3.4,9.3-12.2C46.1,49.4,44,45.8,39.6,45.8z"/>
<path class="st0" d="M57.8,73.1v-4.3c1.7-0.4,3.7-0.7,5.7-0.8V46.1c-1.6-0.3-3.8-0.5-5.7-0.7v-4.3c3.7-0.4,8.4-0.7,12.6-0.5V68
	c1.9,0.1,3.9,0.5,5.4,0.8v4.3H57.8z"/>
<path class="st0" d="M91.9,73.7c-6.9,0-9-2.7-9-9.9V46.1h-6.2v-5.4h6.2V30.3l7-1.9v12.2h8.5v5.4h-8.5v15.6c0,4.8,1,6.1,4.2,6.1
	c1.4,0,2.8-0.2,4-0.5l0.6,5.6C96.7,73.4,94,73.7,91.9,73.7z"/>
<path class="st0" d="M126.5,73.1l-12.3-16.7V68c1.6,0.1,3.3,0.4,4.5,0.8v4.4h-16.9v-4.3c1.6-0.4,3.5-0.7,5.4-0.8V30.8
	c-1.6-0.3-3.7-0.5-5.6-0.7v-4.3c3.6-0.4,8.3-0.7,12.6-0.5v30l8.6-9.7c-1.4-0.1-2.7-0.3-3.5-0.7v-4.4h16.4V45
	c-1.3,0.3-2.9,0.6-4.5,0.7l-9.1,9.8l9.6,12.4c1.5,0.2,3.3,0.5,5,0.8v4.4H126.5z"/>
<path class="st0" d="M154.1,73.8c-9,0-14.8-5-14.8-16.3c0-9.9,6.3-17.5,16.1-17.5c8.7,0,14.8,4.8,14.8,16.3
	C170.3,66.3,163.9,73.8,154.1,73.8z M154.8,45.9c-4.3,0-8.4,3.3-8.4,11c0,7.1,2.8,10.9,8.3,10.9c4.6,0,8.3-3.5,8.3-10.9
	C163.1,49.8,160.3,45.9,154.8,45.9z"/>
<path class="st0" d="M220.1,73.1V52.4c0-4-0.9-6.6-4.6-6.6c-4.2,0-8.4,4.6-8.4,11.8V68c1.7,0.1,3.5,0.4,5,0.8v4.4h-12V52.4
	c0-3.7-0.7-6.6-4.6-6.6c-4.4,0-8.4,5-8.4,11.8V68c1.7,0.1,3.5,0.4,5,0.8v4.4h-17.7v-4.3c1.7-0.4,3.7-0.7,5.7-0.8V46.1
	c-1.6-0.3-3.8-0.5-5.7-0.7v-4.3c3.7-0.4,8.4-0.7,12.4-0.5c0,1.7-0.1,4.4-0.5,6.4l0.1,0.1c1.9-4.3,6-7.1,11-7.1c6.3,0,8.4,4.1,9,7
	c1.4-3.1,5-7,10.9-7c6.2,0,9.7,3.4,9.7,10.7V68c1.9,0.1,3.8,0.5,5.4,0.8v4.3H220.1z"/>
<path class="st0" d="M255.6,73.1c0-2.1,0.1-4.2,0.3-6l-0.1-0.1c-1.6,3.9-5.7,6.7-10.8,6.7c-5.6,0-9.2-3.5-9.2-8.8
	c0-7.3,7.5-11.2,19.2-11.3v-2.2c0-4.1-1.5-6.4-6.3-6.4c-1.8,0-3.9,0.4-5.5,0.9c-0.1,1.4-0.4,3.1-0.7,4.8h-4.3v-9.2
	c3.3-1,7.3-1.8,11.1-1.8c10,0,12.8,4.3,12.8,11v16.7c1.6,0.3,3.7,0.5,5.4,0.7v4.3C264.1,73.1,259.3,73.3,255.6,73.1z M255,58.4
	c-9,0-12.4,2.2-12.4,5.6c0,2.5,1.8,4.4,4.5,4.4c4.8,0,7.9-4.6,7.9-9.2V58.4z"/>
<path class="st0" d="M283.2,73.7c-6.9,0-9-2.7-9-9.9V46.1H268v-5.4h6.2V30.3l7-1.9v12.2h8.5v5.4h-8.5v15.6c0,4.8,1,6.1,4.2,6.1
	c1.4,0,2.8-0.2,4-0.5l0.6,5.6C288,73.4,285.4,73.7,283.2,73.7z"/>
<g>
	<polygon class="st1" points="71,33.3 71,26.1 63.5,26.1 63.5,33.9 71,33.3 	"/>
</g>
</svg>
