<?xml version="1.0" standalone="no"?>
<!DOCTYPE svg PUBLIC "-//W3C//DTD SVG 20010904//EN"
 "http://www.w3.org/TR/2001/REC-SVG-20010904/DTD/svg10.dtd">
<svg version="1.0" xmlns="http://www.w3.org/2000/svg"
 width="512.000000pt" height="512.000000pt" viewBox="0 0 512.000000 512.000000"
 preserveAspectRatio="xMidYMid meet">
<metadata>
Created by potrace 1.14, written by Peter Selinger 2001-2017
</metadata>
<g transform="translate(0.000000,512.000000) scale(0.100000,-0.100000)"
fill="#000000" stroke="none">
<path d="M363 3373 c-31 -4 -33 -7 -33 -43 0 -39 0 -39 43 -42 l42 -3 3 -342
2 -342 57 -11 c31 -7 95 -10 143 -8 70 3 94 9 138 33 59 32 96 75 118 137 35
99 26 232 -19 300 -66 98 -197 113 -285 34 l-37 -34 0 162 0 161 -70 1 c-38 1
-85 -1 -102 -3z m365 -356 c65 -54 52 -280 -19 -317 -40 -22 -81 -29 -125 -23
l-44 6 0 111 c0 100 3 118 25 163 38 75 112 103 163 60z"/>
<path d="M1723 3373 c-31 -4 -33 -7 -33 -43 0 -39 0 -39 43 -42 l42 -3 3 -302
2 -303 -22 -4 c-13 -3 -32 -7 -43 -8 -15 -2 -21 -12 -23 -41 l-3 -37 141 0
141 0 -3 38 c-3 32 -7 37 -31 40 -36 4 -39 12 -35 105 l3 77 95 -130 95 -130
88 0 88 0 -3 37 c-3 35 -5 38 -42 44 -42 7 -43 7 -142 136 l-56 73 74 80 c47
52 81 80 95 80 42 0 53 11 53 51 l0 39 -135 0 -135 0 0 -39 c0 -33 4 -41 25
-48 24 -8 24 -9 -40 -81 l-65 -73 -2 243 -3 243 -70 1 c-38 1 -85 -1 -102 -3z"/>
<path d="M1060 3300 l0 -61 63 3 62 3 3 58 3 57 -66 0 -65 0 0 -60z"/>
<path d="M1418 3308 l-38 -10 0 -84 0 -84 -50 0 -50 0 0 -50 0 -50 50 0 50 0
0 -175 c0 -197 8 -233 59 -259 30 -16 134 -22 179 -10 17 5 22 14 22 39 0 55
-6 60 -56 57 -33 -3 -50 1 -65 13 -17 17 -19 32 -19 177 l0 158 71 0 70 0 -3
48 -3 47 -67 3 -68 3 0 94 c0 107 1 105 -82 83z"/>
<path d="M4568 3308 l-38 -10 0 -83 0 -84 -52 -3 -53 -3 0 -45 0 -45 53 -3 52
-3 0 -175 c0 -196 8 -232 59 -258 30 -16 134 -22 179 -10 22 6 28 34 16 79 -4
17 -12 20 -53 17 -78 -6 -81 1 -81 188 l0 159 68 3 67 3 0 45 0 45 -67 3 -68
3 0 94 c0 107 1 105 -82 83z"/>
<path d="M2497 3126 c-64 -18 -116 -61 -151 -127 -24 -44 -31 -69 -34 -135
-10 -184 75 -284 240 -284 160 0 268 117 268 290 0 73 -23 151 -57 191 -53 62
-172 92 -266 65z m140 -112 c74 -47 83 -219 15 -295 -54 -60 -162 -47 -198 23
-22 42 -29 133 -14 187 13 48 57 97 93 104 31 6 78 -2 104 -19z"/>
<path d="M3220 3131 c-48 -15 -88 -41 -109 -68 l-22 -28 3 45 c4 54 0 55 -119
45 l-83 -7 0 -38 c0 -38 0 -39 43 -42 l42 -3 0 -180 0 -180 -40 -5 c-38 -5
-40 -7 -43 -42 l-3 -38 146 0 146 0 -3 38 c-3 34 -6 37 -38 42 l-35 5 0 120
c0 102 3 126 21 159 38 73 109 104 154 68 25 -20 25 -21 28 -226 l3 -206 100
0 100 0 -3 38 c-3 34 -6 37 -38 42 l-35 5 -3 105 c-2 58 2 121 7 141 22 74 87
126 143 114 50 -11 58 -47 58 -260 l0 -185 105 0 105 0 0 35 c0 36 -3 38 -65
47 -19 3 -20 13 -26 178 -3 96 -10 187 -16 201 -44 102 -199 115 -287 24 l-40
-41 -16 30 c-8 16 -26 38 -40 48 -29 21 -104 31 -140 19z"/>
<path d="M4022 3129 c-90 -16 -93 -19 -90 -102 l3 -72 37 -3 c36 -3 37 -2 45
40 8 38 12 43 46 51 87 21 147 -15 147 -87 l0 -43 -66 -7 c-88 -9 -163 -39
-204 -81 -27 -28 -34 -44 -38 -88 -8 -98 46 -157 145 -157 65 0 99 13 141 53
l32 31 0 -37 0 -37 100 0 100 0 0 39 c0 38 -1 39 -44 45 l-45 7 -3 179 c-3
201 -9 217 -81 253 -43 22 -152 30 -225 16z m188 -325 c0 -103 -129 -175 -183
-102 -48 64 21 122 151 127 28 1 32 -2 32 -25z"/>
<path d="M1008 3123 c-37 -4 -38 -6 -38 -43 0 -39 0 -39 43 -42 l42 -3 3 -177
c3 -197 9 -180 -63 -190 -15 -2 -21 -12 -23 -41 l-3 -37 150 0 151 0 0 35 c0
36 -3 38 -65 47 -19 3 -20 13 -25 228 l-5 225 -65 1 c-36 1 -82 -1 -102 -3z"/>
<path d="M3433 2203 c-10 -3 -13 -47 -13 -169 l0 -164 55 0 c74 0 122 21 139
60 17 41 10 76 -21 100 l-24 19 20 20 c24 24 28 78 8 105 -19 26 -125 45 -164
29z m122 -43 c20 -16 19 -65 -1 -84 -9 -9 -32 -16 -55 -16 l-39 0 0 61 0 62
40 -6 c23 -3 47 -11 55 -17z m17 -160 c35 -44 -6 -100 -73 -100 l-39 0 0 66 0
67 47 -6 c32 -3 53 -12 65 -27z"/>
<path d="M3713 2110 c-42 -18 -26 -31 31 -24 48 6 55 4 70 -17 30 -43 24 -50
-57 -64 -21 -3 -47 -15 -58 -26 -23 -23 -25 -72 -3 -93 22 -22 76 -20 108 5
l26 20 0 -20 c0 -12 6 -21 15 -21 12 0 15 18 15 103 0 70 -4 109 -13 121 -16
22 -99 31 -134 16z m117 -125 c0 -3 -6 -21 -14 -40 -21 -49 -86 -62 -102 -20
-8 19 21 52 50 58 33 7 66 7 66 2z"/>
<path d="M3910 2115 c0 -3 20 -59 45 -124 39 -103 44 -123 34 -147 -16 -43
-39 -64 -71 -64 -18 0 -28 -5 -28 -15 0 -42 89 -16 114 33 21 40 116 295 116
311 0 7 -8 11 -17 9 -11 -2 -26 -32 -47 -96 -17 -50 -33 -92 -36 -92 -3 0 -21
43 -39 95 -26 75 -37 95 -52 95 -11 0 -19 -2 -19 -5z"/>
<path d="M4188 2091 c-31 -28 -33 -33 -33 -101 0 -66 2 -74 28 -96 21 -18 40
-24 77 -24 56 0 80 7 80 24 0 9 -16 11 -54 8 -45 -4 -57 -1 -75 17 -11 11 -21
32 -21 46 0 25 1 25 80 25 l80 0 0 30 c0 92 -93 133 -162 71z m106 -17 c9 -8
16 -24 16 -35 0 -17 -7 -19 -60 -19 -65 0 -72 8 -44 48 18 26 65 30 88 6z"/>
<path d="M4420 1996 c0 -119 1 -126 20 -126 18 0 20 7 20 83 0 91 12 120 55
131 29 7 34 36 6 36 -10 0 -30 -9 -44 -20 -22 -17 -25 -18 -23 -3 0 10 -7 19
-16 21 -16 3 -18 -8 -18 -122z"/>
<path d="M4597 2113 c-4 -3 -7 -60 -7 -125 0 -109 1 -118 19 -118 17 0 19 9
22 84 4 73 7 88 28 110 26 28 59 34 79 14 8 -8 12 -47 12 -110 0 -91 1 -98 20
-98 19 0 20 7 20 105 0 92 -3 108 -20 125 -29 29 -84 27 -115 -5 l-25 -24 0
24 c0 24 -18 33 -33 18z"/>
</g>
</svg>
