<?xml version="1.0" encoding="utf-8"?>
<!-- Generator: Adobe Illustrator 24.3.0, SVG Export Plug-In . SVG Version: 6.00 Build 0)  -->
<svg version="1.1" id="Ebene_1" xmlns="http://www.w3.org/2000/svg" xmlns:xlink="http://www.w3.org/1999/xlink" x="0px" y="0px"
	 viewBox="0 0 286.7 68.9" style="enable-background:new 0 0 286.7 68.9;" xml:space="preserve">
<style type="text/css">
	.st0{fill:#007EB4;}
	.st1{fill:#07262D;}
</style>
<g>
	<path class="st0" d="M44.6,28c-2.8-3.6-6.9-5.5-12.2-5.5c-3.2,0-6.2,0.8-8.7,2.5c-2.4,1.6-4.4,3.9-5.5,6.6h0
		c0.4-2.2,0.7-5.7,0.7-8.5V2.5l0,0c-1.3-0.1-2.7-0.1-4.1-0.1c-4.1,0-8.8,0.3-13.1,0.7l0,0v6l0,0C4,9.3,6.8,9.6,9.2,10v56.9l0,0
		c5.2,1.3,9.9,1.9,15.9,1.9c7.3,0,13.3-2.4,17.5-6.8c4.1-4.4,6.3-10.8,6.3-18.4C48.8,36.8,47.4,31.6,44.6,28z M35.1,57.2
		c-2.2,2.5-5.3,3.8-9.2,3.8c-2.9,0-5.1-0.3-7.1-0.9V46.4c0-3.9,1-7.8,2.8-10.7c1.4-2.3,4-5.1,8.2-5.1c2.9,0,5.2,1.2,6.7,3.6
		c1.4,2.3,2.2,5.8,2.2,10.3C38.7,50.1,37.5,54.4,35.1,57.2z"/>
	<path class="st0" d="M106.6,60L106.6,60L106.6,60c-1.9,0.4-3.8,0.6-5.5,0.6c-2.4,0-3.7-0.5-4.6-1.7c-0.9-1.2-1.2-3.2-1.2-6.7V30.9
		h11.7v-7.5H95.3V6.6l-9.6,2.6l0,0v14.2h-8.5v7.5h8.5v24.3c0,5.2,0.8,8.5,2.6,10.6c1.9,2.1,4.9,3.1,9.8,3.1c2.9,0,6.5-0.4,9.3-1.1
		l0,0L106.6,60z"/>
	<path class="st1" d="M146.2,68l-16.9-23v15.9c2.2,0.2,4.5,0.5,6.2,1.1v6h-23.1v-5.9c2.2-0.5,4.8-1,7.4-1.2V10
		c-2.2-0.4-5.1-0.7-7.6-0.9V3.1c4.9-0.5,11.4-0.9,17.2-0.6v41.2l11.8-13.4c-2-0.2-3.7-0.4-4.8-0.9v-6h22.5v6c-1.8,0.4-4,0.8-6.2,1
		l-12.5,13.5l13.2,17c2.1,0.3,4.5,0.6,6.8,1.2v6H146.2z"/>
	<path class="st1" d="M181.1,68.9c-12.4,0-20.4-6.9-20.4-22.4c0-13.6,8.6-24,22.2-24c11.9,0,20.4,6.6,20.4,22.4
		C203.3,58.6,194.6,68.9,181.1,68.9z M182.1,30.6c-5.9,0-11.5,4.5-11.5,15.1c0,9.7,3.9,15,11.4,15c6.3,0,11.4-4.8,11.4-15
		C193.4,36,189.6,30.6,182.1,30.6z"/>
	<path class="st1" d="M268.1,68V39.6c0-5.5-1.3-9.1-6.4-9.1c-5.7,0-11.5,6.4-11.5,16.2v14.2c2.3,0.2,4.8,0.5,6.9,1.1v6h-16.4V39.6
		c0-5.1-1-9.1-6.4-9.1c-6.1,0-11.5,6.8-11.5,16.2v14.2c2.3,0.2,4.8,0.5,6.9,1.1v6h-24.2v-5.9c2.3-0.5,5.1-1,7.8-1.2V30.9
		c-2.2-0.4-5.2-0.7-7.8-0.9V24c5-0.5,11.6-0.9,17-0.6c0,2.3-0.2,6.1-0.6,8.8l0.1,0.1c2.6-5.9,8.3-9.8,15.2-9.8
		c8.7,0,11.6,5.7,12.3,9.6c2-4.2,6.8-9.6,15-9.6c8.5,0,13.3,4.7,13.3,14.7v23.7c2.6,0.2,5.2,0.6,7.4,1.2V68H268.1z"/>
	<path class="st0" d="M77,62.1c-2.3-0.6-5-1-7.4-1.2V23.4l0,0c-1.3-0.1-2.7-0.1-4.2-0.1c-4.2,0-8.8,0.3-13.2,0.7l0,0v6l0,0
		c2.5,0.2,5.5,0.5,7.8,0.9v30c-2.5,0.2-5.2,0.6-7.8,1.2l0,0v6H77L77,62.1L77,62.1z M70.1,13.7V3.9H59.9v10.6L70.1,13.7L70.1,13.7z"
		/>
</g>
</svg>
