<?xml version="1.0" encoding="utf-8"?>
<!-- Generator: Adobe Illustrator 25.2.1, SVG Export Plug-In . SVG Version: 6.00 Build 0)  -->
<svg version="1.1" id="Ebene_1" xmlns="http://www.w3.org/2000/svg" xmlns:xlink="http://www.w3.org/1999/xlink" x="0px" y="0px"
	 viewBox="0 0 308 100" style="enable-background:new 0 0 308 100;" xml:space="preserve">
<style type="text/css">
	.st0{fill:#FFFFFF;}
</style>
<g>
	<path class="st0" d="M36.12,73.67c-4.58,0-7.98-0.46-11.57-1.37V30.85c-1.57-0.26-3.66-0.52-5.56-0.65v-4.31
		c3.66-0.39,8.3-0.65,12.55-0.46v14.97c0,1.9-0.2,4.51-0.52,6.21h0.07c1.7-4.05,5.56-6.6,10.33-6.6c7.71,0,11.96,5.49,11.96,15.3
		C53.38,66.54,46.98,73.67,36.12,73.67z M39.59,45.82c-5.23,0-8.04,6.08-8.04,11.57v10.07c1.44,0.46,3.07,0.65,5.16,0.65
		c5.49,0,9.35-3.4,9.35-12.16C46.06,49.42,43.97,45.82,39.59,45.82z"/>
	<path class="st0" d="M57.82,73.15v-4.31c1.7-0.39,3.73-0.72,5.69-0.85v-21.9c-1.57-0.26-3.79-0.52-5.69-0.65v-4.31
		c3.66-0.39,8.37-0.65,12.62-0.46v27.33c1.9,0.13,3.86,0.46,5.43,0.85v4.31H57.82z M70.98,33.31v-7.17h-7.47v7.77l7.45-0.6
		L70.98,33.31z"/>
	<path class="st0" d="M91.88,73.73c-6.93,0-9.02-2.68-9.02-9.94V46.08h-6.21v-5.43h6.21V30.33l6.99-1.9v12.23h8.5v5.43h-8.5v15.56
		c0,4.84,0.98,6.14,4.25,6.14c1.44,0,2.81-0.2,3.99-0.46l0.59,5.62C96.72,73.41,94.04,73.73,91.88,73.73z"/>
	<path class="st0" d="M126.46,73.15l-12.29-16.74v11.57c1.63,0.13,3.27,0.39,4.51,0.78v4.38h-16.87v-4.31
		c1.57-0.39,3.53-0.72,5.36-0.85V30.85c-1.57-0.26-3.73-0.52-5.56-0.65v-4.31c3.6-0.39,8.3-0.65,12.55-0.46v30.01l8.56-9.74
		c-1.44-0.13-2.68-0.33-3.53-0.65v-4.38h16.41v4.38c-1.31,0.33-2.94,0.59-4.51,0.72l-9.09,9.81l9.61,12.36
		c1.5,0.2,3.27,0.46,4.97,0.85v4.38H126.46z"/>
	<path class="st0" d="M154.11,73.8c-9.02,0-14.84-5.03-14.84-16.34c0-9.94,6.28-17.45,16.15-17.45c8.7,0,14.84,4.77,14.84,16.34
		C170.25,66.28,163.91,73.8,154.11,73.8z M154.83,45.88c-4.31,0-8.37,3.27-8.37,10.98c0,7.06,2.81,10.92,8.3,10.92
		c4.58,0,8.3-3.53,8.3-10.92C163.06,49.81,160.25,45.88,154.83,45.88z"/>
	<path class="st0" d="M220.13,73.15V52.42c0-3.99-0.92-6.6-4.64-6.6c-4.18,0-8.37,4.64-8.37,11.83v10.33
		c1.7,0.13,3.53,0.39,5.03,0.78v4.38h-11.96V52.42c0-3.73-0.72-6.6-4.64-6.6c-4.45,0-8.37,4.97-8.37,11.83v10.33
		c1.7,0.13,3.53,0.39,5.03,0.78v4.38h-17.65v-4.31c1.7-0.39,3.73-0.72,5.69-0.85v-21.9c-1.57-0.26-3.79-0.52-5.69-0.65v-4.31
		c3.66-0.39,8.43-0.65,12.36-0.46c0,1.7-0.13,4.45-0.46,6.41l0.07,0.07c1.9-4.31,6.01-7.13,11.05-7.13c6.34,0,8.43,4.12,8.96,6.99
		c1.44-3.07,4.97-6.99,10.92-6.99c6.21,0,9.68,3.4,9.68,10.72v17.26c1.9,0.13,3.79,0.46,5.36,0.85v4.31H220.13z"/>
	<path class="st0" d="M255.55,73.15c0-2.09,0.07-4.25,0.33-6.01l-0.07-0.07c-1.57,3.86-5.69,6.73-10.79,6.73
		c-5.56,0-9.15-3.46-9.15-8.76c0-7.32,7.45-11.18,19.15-11.31v-2.16c0-4.05-1.5-6.41-6.34-6.41c-1.76,0-3.86,0.39-5.49,0.92
		c-0.13,1.44-0.39,3.14-0.72,4.84h-4.31v-9.15c3.27-1.05,7.26-1.76,11.11-1.76c10,0,12.81,4.31,12.81,10.98v16.74
		c1.57,0.26,3.66,0.52,5.43,0.65v4.31C264.12,73.08,259.34,73.34,255.55,73.15z M255.03,58.44c-8.96,0-12.42,2.16-12.42,5.56
		c0,2.55,1.77,4.38,4.51,4.38c4.77,0,7.91-4.58,7.91-9.22V58.44z"/>
	<path class="st0" d="M283.2,73.73c-6.93,0-9.02-2.68-9.02-9.94V46.08h-6.21v-5.43h6.21V30.33l6.99-1.9v12.23h8.5v5.43h-8.5v15.56
		c0,4.84,0.98,6.14,4.25,6.14c1.44,0,2.81-0.2,3.99-0.46l0.59,5.62C288.04,73.41,285.36,73.73,283.2,73.73z"/>
</g>
</svg>
