<?xml version="1.0" encoding="utf-8"?>
<!-- Generator: Adobe Illustrator 25.2.1, SVG Export Plug-In . SVG Version: 6.00 Build 0)  -->
<svg version="1.1" id="Ebene_1" xmlns="http://www.w3.org/2000/svg" xmlns:xlink="http://www.w3.org/1999/xlink" x="0px" y="0px"
	 viewBox="0 0 272 52" style="enable-background:new 0 0 272 52;" xml:space="preserve">
<style type="text/css">
	.st0{fill:#08262D;}
</style>
<g>
	<path class="st0" d="M0.22,4.82c0,0,7.31-0.35,14.28-0.35c11.17,0,16.76,4.21,16.76,11.86c0,4.41-2.41,8.41-6.76,10.14v0.07
		c5.1,1.31,8.35,5.17,8.35,10.48c0,7.03-5.52,14.41-18.9,14.41c-3.17,0-7.86-0.14-13.73-0.14V4.82z M9.19,24.07
		c1.1,0.07,2.27,0.07,4,0.07c5.86,0,8.62-2.48,8.62-6.48c0-3.52-2.07-6.07-7.93-6.07c-1.59,0-3.24,0.07-4.69,0.14V24.07z
		 M9.19,44.07c1.1,0.14,3.45,0.21,5.03,0.21c6.14,0,8.97-2.83,8.97-6.83c0-4.14-2.83-6.62-9.79-6.62c-0.83,0-3.24,0-4.21,0.07V44.07
		z"/>
	<path class="st0" d="M44.64,11.93c-3.04,0-5.45-2.34-5.45-5.31c0-2.97,2.41-5.38,5.45-5.38c3.04,0,5.52,2.35,5.52,5.38
		C50.16,9.51,47.68,11.93,44.64,11.93z M40.23,51.31V17.03h8.83v34.28H40.23z"/>
	<path class="st0" d="M77.61,51.03C75.4,51.59,72.5,52,70.3,52c-7.66,0-10.07-2.76-10.07-10.97V23.86h-5.86v-6.83h5.86V6.48
		l8.83-2.35v12.9h8.21v6.83h-8.21v15.52c0,4,0.9,5.24,3.86,5.24c1.45,0,2.9-0.21,4.07-0.48L77.61,51.03z"/>
	<path class="st0" d="M103.89,51.31L93.27,34.34v16.97h-8.83V0.96h8.83v30.35l10-14.28h10.34l-11.79,15.31l13.1,18.97H103.89z"/>
	<path class="st0" d="M132.03,52c-9.79,0-16.14-5.31-16.14-17.04c0-10.55,6.28-18.62,17.45-18.62c9.79,0,16.14,5.31,16.14,17.04
		C149.48,43.93,143.2,52,132.03,52z M132.79,23.79c-4.76,0-7.79,3.52-7.79,10.35c0,6.76,2.83,10.34,7.66,10.34
		c4.48,0,7.73-3.24,7.73-10.28C140.37,27.45,137.54,23.79,132.79,23.79z"/>
	<path class="st0" d="M197.9,51.31V29.65c0-3.65-0.83-5.93-4.07-5.93c-3.86,0-7.86,4.48-7.86,11.17v16.42h-8.69V29.58
		c0-3.38-0.69-5.86-4.07-5.86c-4.07,0-7.86,4.76-7.86,11.17v16.42h-8.83V17.03h8.35c0,1.59-0.14,4.21-0.41,6.14l0.07,0.07
		c2.07-4.21,6.21-6.9,11.31-6.9c6.07,0,8.62,3.52,9.45,6.83c1.59-3.31,5.38-6.83,11.17-6.83c6.62,0,10.28,3.66,10.28,11.38v23.59
		H197.9z"/>
	<path class="st0" d="M234.59,51.31c0-2,0.07-4,0.34-5.79l-0.07-0.07c-1.65,3.86-5.86,6.55-10.97,6.55c-6.21,0-9.79-4.21-9.79-9.79
		c0-8.14,7.79-11.93,19.79-11.93v-1.45c0-3.93-1.59-5.79-6.14-5.79c-3.11,0-7.11,0.97-10.42,2.28l-1.38-6.69
		c3.86-1.31,8.62-2.34,12.83-2.34c10.69,0,13.93,4.41,13.93,12.07v14.14c0,2.76,0.07,6,0.28,8.83H234.59z M233.9,36.07
		c-8.9,0-11.31,2.21-11.31,5.17c0,2.21,1.59,4,4.14,4c4.27,0,7.17-4.14,7.17-8.14V36.07z"/>
	<path class="st0" d="M271.42,51.03c-2.21,0.55-5.1,0.97-7.31,0.97c-7.66,0-10.07-2.76-10.07-10.97V23.86h-5.86v-6.83h5.86V6.48
		l8.83-2.35v12.9h8.21v6.83h-8.21v15.52c0,4,0.9,5.24,3.86,5.24c1.45,0,2.9-0.21,4.07-0.48L271.42,51.03z"/>
</g>
</svg>
