<?xml version="1.0" encoding="utf-8"?>
<!-- Generator: Adobe Illustrator 25.2.1, SVG Export Plug-In . SVG Version: 6.00 Build 0)  -->
<svg version="1.1" id="Ebene_1" xmlns="http://www.w3.org/2000/svg" xmlns:xlink="http://www.w3.org/1999/xlink" x="0px" y="0px"
	 viewBox="0 0 645.89 205.28" style="enable-background:new 0 0 645.89 205.28;" xml:space="preserve">
<style type="text/css">
	.st0{clip-path:url(#SVGID_2_);fill:none;stroke:#A4A3A3;stroke-width:2.5;}
	.st1{clip-path:url(#SVGID_2_);}
	.st2{fill:#A4A3A3;}
</style>
<g>
	<defs>
		<rect id="SVGID_1_" x="57.57" y="33.17" width="635.41" height="150.45"/>
	</defs>
	<clipPath id="SVGID_2_">
		<use xlink:href="#SVGID_1_"  style="overflow:visible;"/>
	</clipPath>
	<line class="st0" x1="267.15" y1="40.79" x2="267.15" y2="164.18"/>
	<path class="st1" d="M289.76,88.68v0.69c0,3.35,1.46,5.04,4.5,5.04c2.77,0,4.16-1.96,4.16-4c0-2.89-1.46-4.16-3.93-4.89l-3-1.04
		c-4-1.54-5.73-3.62-5.73-7.54c0-5,3.39-7.77,8.54-7.77c7.04,0,7.77,4.39,7.77,7.23v0.62h-4.39v-0.58c0-2.5-1.12-3.96-3.85-3.96
		c-1.89,0-3.69,1.04-3.69,3.96c0,2.35,1.19,3.54,4.12,4.66l2.96,1.08c3.89,1.39,5.58,3.5,5.58,7.27c0,5.85-3.54,8.27-9.08,8.27
		c-6.81,0-8.35-4.54-8.35-8.39v-0.65H289.76z"/>
	<path class="st1" d="M320.04,89.64c-0.27,4.96-1.96,8.08-7.08,8.08c-6,0-7.7-4.46-7.7-10.89c0-6.43,1.69-10.89,7.7-10.89
		c6.2-0.08,7.12,4.85,7.12,7.43h-4.16c0-1.92-0.54-4.43-2.96-4.35c-3,0-3.54,3.23-3.54,7.81c0,4.58,0.54,7.81,3.54,7.81
		c2.31,0.04,3.16-1.89,3.16-5H320.04z"/>
	<path class="st1" d="M322.97,69.71h4.16v9l0.12,0.08c1.15-1.77,2.96-2.85,5.08-2.85c3.16,0,5.16,1.42,5.16,5.62v15.62h-4.16v-14.2
		c0-2.69-0.81-3.73-2.89-3.73c-1.69,0-3.31,1.35-3.31,4.04v13.89h-4.16V69.71z"/>
	<path class="st1" d="M348.36,75.94c6.04,0,7.73,4.46,7.73,10.89c0,6.43-1.96,10.89-7.73,10.89c-5.73,0-7.7-4.46-7.7-10.89
		C340.67,80.41,342.36,75.94,348.36,75.94z M348.36,94.64c3.04,0,3.58-2.54,3.58-7.81c0-4.58-0.54-7.81-3.58-7.81
		c-3,0-3.54,3.23-3.54,7.81C344.82,92.1,345.36,94.64,348.36,94.64z"/>
	<path class="st1" d="M366.18,75.94c6.04,0,7.73,4.46,7.73,10.89c0,6.43-1.96,10.89-7.73,10.89c-5.73,0-7.7-4.46-7.7-10.89
		C358.48,80.41,360.18,75.94,366.18,75.94z M366.18,94.64c3.04,0,3.58-2.54,3.58-7.81c0-4.58-0.54-7.81-3.58-7.81
		c-3,0-3.54,3.23-3.54,7.81C362.64,92.1,363.18,94.64,366.18,94.64z"/>
	<path class="st1" d="M377.3,69.71h4.16v27.48h-4.16V69.71z"/>
	<path class="st1" d="M401.77,75.94c6.04,0,7.73,4.46,7.73,10.89c0,6.43-1.96,10.89-7.73,10.89c-5.73,0-7.7-4.46-7.7-10.89
		C394.08,80.41,395.77,75.94,401.77,75.94z M401.77,94.64c3.04,0,3.58-2.54,3.58-7.81c0-4.58-0.54-7.81-3.58-7.81
		c-3,0-3.54,3.23-3.54,7.81C398.23,92.1,398.77,94.64,401.77,94.64z"/>
	<path class="st1" d="M413.97,79.56h-2.89v-3.08h2.89v-1.92c0-3.93,1.88-5.16,5.27-5.16c0.88,0,1.65,0.04,2.27,0.12v3.19h-1.15
		c-1.54,0-2.23,0.58-2.23,1.96v1.81h3.39v3.08h-3.39v17.62h-4.16V79.56z"/>
	<path class="st1" d="M446.49,93.99h-0.08c-1.19,2.54-2.77,3.73-6,3.73c-6,0-8.16-4.46-8.16-14.28c0-9.81,2.77-14.28,9.12-14.28
		c6.89,0,8.04,5.43,8.04,7.93v0.5h-4.16v-0.65c0-2.04-0.85-4.46-3.85-4.46c-3.12,0-4.77,2.08-4.77,10.85
		c0,8.85,1.46,11.08,4.43,11.08c3.35,0.04,4.58-2.39,4.58-8.39h-4.62v-3.31h8.77v14.47h-3.31V93.99z"/>
	<path class="st1" d="M460.19,75.94c6.04,0,7.73,4.46,7.73,10.89c0,6.43-1.96,10.89-7.73,10.89c-5.73,0-7.7-4.46-7.7-10.89
		C452.49,80.41,454.18,75.94,460.19,75.94z M460.19,94.64c3.04,0,3.58-2.54,3.58-7.81c0-4.58-0.54-7.81-3.58-7.81
		c-3,0-3.54,3.23-3.54,7.81C456.64,92.1,457.18,94.64,460.19,94.64z"/>
	<path class="st1" d="M469.15,76.48h4.46l3.62,16.32h0.08l3.27-16.32H485l-5.46,20.7h-4.85L469.15,76.48z"/>
	<path class="st1" d="M490.85,87.37v1.19c0,2.77,0.35,6.31,3.46,6.31c2.96,0,3.31-3.39,3.31-4.62h3.92c0,4.58-2.77,7.47-7.27,7.47
		c-3.39,0-7.58-1-7.58-10.58c0-5.43,1.15-11.2,7.66-11.2c5.77,0,7.31,3.46,7.31,9.24v2.19H490.85z M497.51,84.52v-1.12
		c0-2.62-0.85-4.62-3.19-4.62c-2.65,0-3.46,2.62-3.46,5.31v0.42H497.51z"/>
	<path class="st1" d="M505.09,76.48h4.16v3.23h0.08c0.92-2.31,2.46-3.77,4.81-3.77c0.46,0,0.73,0.08,1,0.15v4.23
		c-0.31-0.08-1.04-0.23-1.73-0.23c-1.89,0-4.16,0.85-4.16,4.69v12.39h-4.16V76.48z"/>
	<path class="st1" d="M517.6,76.48h3.92v2.42h0.12c1.04-1.85,3-2.96,5.31-2.96c3.16,0,5.16,1.42,5.16,5.62v15.62h-4.16v-14.2
		c0-2.69-0.81-3.73-2.89-3.73c-1.69,0-3.31,1.35-3.31,4.04v13.89h-4.16V76.48z"/>
	<path class="st1" d="M549.69,92.87c0,0.77,0.46,1.46,1.08,1.46c0.27,0,0.54-0.04,0.69-0.12v2.69c-0.5,0.23-1.23,0.5-2.04,0.5
		c-1.85,0-3.39-0.73-3.5-2.73h-0.08c-1.12,2.04-2.73,3.04-5.16,3.04c-3.31,0-5.39-1.85-5.39-5.81c0-4.62,2-5.58,4.81-6.5l3.23-0.89
		c1.5-0.42,2.42-0.85,2.42-2.66c0-1.89-0.65-3.08-2.85-3.08c-2.77,0-3.16,1.96-3.16,3.96h-3.92c0-4.39,1.81-6.81,7.27-6.81
		c3.66,0,6.58,1.42,6.58,5.08V92.87z M545.76,86.26c-1.08,0.85-3.39,1.35-4.62,1.92c-1.19,0.58-1.69,1.81-1.69,3.35
		c0,1.73,0.85,3.12,2.58,3.12c2.5,0,3.73-1.89,3.73-4.93V86.26z"/>
	<path class="st1" d="M553.92,76.48h3.92v2.42h0.12c1.04-1.85,3-2.96,5.31-2.96c3.16,0,5.16,1.42,5.16,5.62v15.62h-4.16v-14.2
		c0-2.69-0.81-3.73-2.89-3.73c-1.69,0-3.31,1.35-3.31,4.04v13.89h-4.16V76.48z"/>
	<path class="st1" d="M586.4,89.64c-0.27,4.96-1.96,8.08-7.08,8.08c-6,0-7.7-4.46-7.7-10.89c0-6.43,1.69-10.89,7.7-10.89
		c6.2-0.08,7.12,4.85,7.12,7.43h-4.16c0-1.92-0.54-4.43-2.96-4.35c-3,0-3.54,3.23-3.54,7.81c0,4.58,0.54,7.81,3.54,7.81
		c2.31,0.04,3.16-1.89,3.16-5H586.4z"/>
	<path class="st1" d="M593.09,87.37v1.19c0,2.77,0.35,6.31,3.46,6.31c2.96,0,3.31-3.39,3.31-4.62h3.92c0,4.58-2.77,7.47-7.27,7.47
		c-3.39,0-7.58-1-7.58-10.58c0-5.43,1.15-11.2,7.66-11.2c5.77,0,7.31,3.46,7.31,9.24v2.19H593.09z M599.75,84.52v-1.12
		c0-2.62-0.85-4.62-3.19-4.62c-2.66,0-3.46,2.62-3.46,5.31v0.42H599.75z"/>
</g>
<g>
	<path class="st2" d="M33.61,136V69.31h13.07L74.1,114V69.31h12.47V136H73.09L46.08,92.23V136H33.61z"/>
	<path class="st2" d="M100.88,136V69.31h28.33c7.12,0,12.3,0.6,15.53,1.8c3.23,1.2,5.81,3.33,7.75,6.39
		c1.94,3.06,2.91,6.57,2.91,10.51c0,5.01-1.47,9.14-4.4,12.4c-2.94,3.26-7.33,5.32-13.17,6.17c2.9,1.7,5.3,3.56,7.19,5.59
		c1.89,2.03,4.44,5.64,7.64,10.82L160.8,136h-16.1l-9.68-14.53c-3.46-5.17-5.83-8.43-7.1-9.78c-1.28-1.35-2.63-2.27-4.05-2.77
		c-1.43-0.5-3.69-0.75-6.78-0.75h-2.73V136H100.88z M114.36,97.52h9.96c6.46,0,10.49-0.27,12.1-0.82c1.61-0.55,2.87-1.49,3.78-2.82
		c0.91-1.33,1.37-3,1.37-5c0-2.24-0.6-4.06-1.8-5.44c-1.2-1.38-2.89-2.25-5.07-2.62c-1.09-0.15-4.37-0.23-9.83-0.23h-10.51V97.52z"
		/>
	<path class="st2" d="M177.47,136l-15.84-66.69h13.85l10,45.81l12.17-45.81h16.03l11.72,46.58l10.23-46.58h13.55L233.07,136h-14.4
		l-13.26-49.86L192.17,136H177.47z"/>
</g>
<g>
	<path class="st2" d="M285.27,114.56h3.64l3.56,17.44h0.08l3.77-17.44h4.1l3.68,17.44h0.08l3.44-17.44h3.64l-5.26,21.34h-3.81
		l-3.89-17.44h-0.08l-3.73,17.44h-4.06L285.27,114.56z"/>
	<path class="st2" d="M313.96,114.56h3.64l3.56,17.44h0.08l3.77-17.44h4.1L332.8,132h0.08l3.44-17.44h3.64l-5.26,21.34h-3.81
		L327,118.47h-0.08l-3.73,17.44h-4.06L313.96,114.56z"/>
	<path class="st2" d="M342.61,114.56h3.64l3.56,17.44h0.08l3.77-17.44h4.1l3.68,17.44h0.08l3.44-17.44h3.64l-5.26,21.34h-3.81
		l-3.89-17.44h-0.08l-3.73,17.44h-4.06L342.61,114.56z"/>
	<path class="st2" d="M372.42,131.68h3.81v4.22h-3.81V131.68z"/>
	<path class="st2" d="M383.43,114.56h3.31v2.51h0.08c0.91-1.95,3.23-3.06,5.38-3.06c5.84,0,5.84,4.26,5.84,6.77v15.13h-3.48v-14.73
		c0-1.63-0.12-4.3-3.27-4.3c-1.86,0-4.39,1.19-4.39,4.3v14.73h-3.48V114.56z"/>
	<path class="st2" d="M404.46,114.56h3.48v3.18h0.08c0.99-2.03,2.32-3.74,4.8-3.74c0.71,0,1.2,0.08,1.53,0.24v3.26
		c-0.33-0.04-0.75-0.16-1.86-0.16c-1.74,0-4.55,1.51-4.55,5.06v13.49h-3.48V114.56z"/>
	<path class="st2" d="M416.71,114.56h3.64l3.56,17.44H424l3.77-17.44h4.1l3.68,17.44h0.08l3.44-17.44h3.64l-5.26,21.34h-3.81
		l-3.89-17.44h-0.08l-3.72,17.44h-4.06L416.71,114.56z"/>
	<path class="st2" d="M456.75,120.81c0-2.71-0.75-4.18-3.27-4.18c-1.12,0-3.6,0.28-3.6,3.26c0,2.51,2.73,2.99,5.46,3.86
		c2.69,0.88,5.42,1.79,5.42,6.01c0,4.5-3.02,6.69-7.16,6.69c-7.54,0-7.62-5.37-7.62-7.56h3.48c0,2.59,0.75,4.94,4.14,4.94
		c1.12,0,3.68-0.52,3.68-3.54c0-2.87-2.73-3.46-5.42-4.34c-2.69-0.88-5.46-1.63-5.46-6.05c0-3.98,3.23-5.89,7.08-5.89
		c6.46,0,6.71,4.3,6.75,6.81H456.75z"/>
	<path class="st2" d="M476.5,121.05c0-2.07-0.87-4.42-3.52-4.42c-2.15,0-4.35,1.03-4.35,8.84c0,2.79,0.04,8.36,4.22,8.36
		c2.98,0,3.64-3.03,3.64-5.33h3.48c0,3.38-1.74,7.96-7.29,7.96c-5.42,0-7.7-3.62-7.7-10.95c0-5.33,1.08-11.5,7.91-11.5
		c6.04,0,7.08,4.58,7.08,7.05H476.5z"/>
	<path class="st2" d="M485.4,107.48h3.48v9.51h0.08c0.91-1.75,3.35-2.99,5.34-2.99c5.71,0,5.71,4.26,5.71,6.77v15.13h-3.48v-14.73
		c0-1.63-0.12-4.3-3.27-4.3c-1.86,0-4.39,1.19-4.39,4.3v14.73h-3.48V107.48z"/>
	<path class="st2" d="M513.34,114.01c6.42,0,7.99,5.21,7.99,11.23s-1.61,11.23-7.99,11.23c-6.42,0-7.99-5.21-7.99-11.23
		S506.96,114.01,513.34,114.01z M517.69,125.23c0-4.62-0.7-8.6-4.43-8.6c-3.52,0-4.26,3.98-4.26,8.6c0,4.62,0.7,8.6,4.26,8.6
		C516.94,133.83,517.69,129.85,517.69,125.23z"/>
	<path class="st2" d="M533.58,114.01c6.42,0,7.99,5.21,7.99,11.23s-1.61,11.23-7.99,11.23c-6.42,0-7.99-5.21-7.99-11.23
		S527.21,114.01,533.58,114.01z M537.93,125.23c0-4.62-0.7-8.6-4.43-8.6c-3.52,0-4.26,3.98-4.26,8.6c0,4.62,0.7,8.6,4.26,8.6
		C537.19,133.83,537.93,129.85,537.93,125.23z"/>
	<path class="st2" d="M547.12,107.48h3.48v28.42h-3.48V107.48z"/>
	<path class="st2" d="M557.97,131.68h3.81v4.22h-3.81V131.68z"/>
	<path class="st2" d="M583.59,135.9h-3.31v-2.63h-0.08c-0.46,1.59-2.4,3.18-4.8,3.18c-5.26,0-7.24-4.5-7.24-11.23
		c0-4.46,0.74-11.23,7-11.23c1.99,0,4.1,1.15,4.88,2.99h0.08v-9.51h3.48V135.9z M575.85,133.59c3.85,0,4.47-3.5,4.47-8.36
		c0-4.14-0.74-8.36-4.47-8.36c-3.23,0-4.06,3.26-4.06,8.36S572.62,133.59,575.85,133.59z"/>
	<path class="st2" d="M592.91,125.63c0,3.26,0,8.2,4.27,8.2c3.31,0,3.77-3.34,3.77-4.94h3.48c0,2.27-1.41,7.56-7.45,7.56
		c-5.42,0-7.7-3.62-7.7-10.95c0-5.33,1.08-11.5,7.91-11.5c6.79,0,7.41,5.69,7.41,10.27v1.35H592.91z M600.94,123v-1.15
		c0-2.39-0.79-5.21-3.85-5.21c-3.64,0-4.06,4.3-4.06,5.57v0.8H600.94z"/>
</g>
</svg>
