<?xml version="1.0" encoding="utf-8"?>
<!-- Generator: Adobe Illustrator 25.2.1, SVG Export Plug-In . SVG Version: 6.00 Build 0)  -->
<svg version="1.1" id="Ebene_1" xmlns="http://www.w3.org/2000/svg" xmlns:xlink="http://www.w3.org/1999/xlink" x="0px" y="0px"
	 viewBox="0 0 572.22 122.7" style="enable-background:new 0 0 572.22 122.7;" xml:space="preserve">
<style type="text/css">
	.st0{clip-path:url(#SVGID_2_);fill:none;stroke:#A4A3A3;stroke-width:2.5;}
	.st1{clip-path:url(#SVGID_2_);}
	.st2{fill:#A4A3A3;}
</style>
<g>
	<defs>
		<rect id="SVGID_1_" x="24.4" y="-8.12" width="635.41" height="150.45"/>
	</defs>
	<clipPath id="SVGID_2_">
		<use xlink:href="#SVGID_1_"  style="overflow:visible;"/>
	</clipPath>
	<line class="st0" x1="233.98" y1="-0.5" x2="233.98" y2="122.88"/>
	<path class="st1" d="M256.59,47.38v0.69c0,3.35,1.46,5.04,4.5,5.04c2.77,0,4.16-1.96,4.16-4c0-2.89-1.46-4.16-3.93-4.89l-3-1.04
		c-4-1.54-5.73-3.62-5.73-7.54c0-5,3.39-7.77,8.54-7.77c7.04,0,7.77,4.39,7.77,7.23v0.62h-4.39v-0.58c0-2.5-1.12-3.96-3.85-3.96
		c-1.89,0-3.69,1.04-3.69,3.96c0,2.35,1.19,3.54,4.12,4.66l2.96,1.08c3.89,1.39,5.58,3.5,5.58,7.27c0,5.85-3.54,8.27-9.08,8.27
		c-6.81,0-8.35-4.54-8.35-8.39v-0.65H256.59z"/>
	<path class="st1" d="M286.87,48.35c-0.27,4.96-1.96,8.08-7.08,8.08c-6,0-7.7-4.46-7.7-10.89c0-6.43,1.69-10.89,7.7-10.89
		c6.2-0.08,7.12,4.85,7.12,7.43h-4.16c0-1.92-0.54-4.43-2.96-4.35c-3,0-3.54,3.23-3.54,7.81c0,4.58,0.54,7.81,3.54,7.81
		c2.31,0.04,3.16-1.89,3.16-5H286.87z"/>
	<path class="st1" d="M289.79,28.41h4.16v9l0.12,0.08c1.15-1.77,2.96-2.85,5.08-2.85c3.16,0,5.16,1.42,5.16,5.62v15.62h-4.16v-14.2
		c0-2.69-0.81-3.73-2.89-3.73c-1.69,0-3.31,1.35-3.31,4.04v13.89h-4.16V28.41z"/>
	<path class="st1" d="M315.19,34.65c6.04,0,7.73,4.46,7.73,10.89c0,6.43-1.96,10.89-7.73,10.89c-5.73,0-7.7-4.46-7.7-10.89
		C307.49,39.11,309.19,34.65,315.19,34.65z M315.19,53.35c3.04,0,3.58-2.54,3.58-7.81c0-4.58-0.54-7.81-3.58-7.81
		c-3,0-3.54,3.23-3.54,7.81C311.65,50.81,312.19,53.35,315.19,53.35z"/>
	<path class="st1" d="M333.01,34.65c6.04,0,7.73,4.46,7.73,10.89c0,6.43-1.96,10.89-7.73,10.89c-5.73,0-7.7-4.46-7.7-10.89
		C325.31,39.11,327,34.65,333.01,34.65z M333.01,53.35c3.04,0,3.58-2.54,3.58-7.81c0-4.58-0.54-7.81-3.58-7.81
		c-3,0-3.54,3.23-3.54,7.81C329.47,50.81,330.01,53.35,333.01,53.35z"/>
	<path class="st1" d="M344.13,28.41h4.16v27.48h-4.16V28.41z"/>
	<path class="st1" d="M368.6,34.65c6.04,0,7.73,4.46,7.73,10.89c0,6.43-1.96,10.89-7.73,10.89c-5.73,0-7.7-4.46-7.7-10.89
		C360.9,39.11,362.6,34.65,368.6,34.65z M368.6,53.35c3.04,0,3.58-2.54,3.58-7.81c0-4.58-0.54-7.81-3.58-7.81
		c-3,0-3.54,3.23-3.54,7.81C365.06,50.81,365.6,53.35,368.6,53.35z"/>
	<path class="st1" d="M380.8,38.26h-2.89v-3.08h2.89v-1.92c0-3.93,1.88-5.16,5.27-5.16c0.88,0,1.65,0.04,2.27,0.12v3.19h-1.15
		c-1.54,0-2.23,0.58-2.23,1.96v1.81h3.39v3.08h-3.39v17.62h-4.16V38.26z"/>
	<path class="st1" d="M413.31,52.7h-0.08c-1.19,2.54-2.77,3.73-6,3.73c-6,0-8.16-4.46-8.16-14.28c0-9.81,2.77-14.28,9.12-14.28
		c6.89,0,8.04,5.43,8.04,7.93v0.5h-4.16v-0.65c0-2.04-0.85-4.46-3.85-4.46c-3.12,0-4.77,2.08-4.77,10.85
		c0,8.85,1.46,11.08,4.43,11.08c3.35,0.04,4.58-2.39,4.58-8.39h-4.62v-3.31h8.77v14.47h-3.31V52.7z"/>
	<path class="st1" d="M427.01,34.65c6.04,0,7.73,4.46,7.73,10.89c0,6.43-1.96,10.89-7.73,10.89c-5.73,0-7.7-4.46-7.7-10.89
		C419.32,39.11,421.01,34.65,427.01,34.65z M427.01,53.35c3.04,0,3.58-2.54,3.58-7.81c0-4.58-0.54-7.81-3.58-7.81
		c-3,0-3.54,3.23-3.54,7.81C423.47,50.81,424.01,53.35,427.01,53.35z"/>
	<path class="st1" d="M435.98,35.19h4.46l3.62,16.32h0.08l3.27-16.32h4.42l-5.46,20.7h-4.85L435.98,35.19z"/>
	<path class="st1" d="M457.68,46.08v1.19c0,2.77,0.35,6.31,3.46,6.31c2.96,0,3.31-3.39,3.31-4.62h3.92c0,4.58-2.77,7.47-7.27,7.47
		c-3.39,0-7.58-1-7.58-10.58c0-5.43,1.15-11.2,7.66-11.2c5.77,0,7.31,3.46,7.31,9.24v2.19H457.68z M464.34,43.23v-1.12
		c0-2.62-0.85-4.62-3.19-4.62c-2.65,0-3.46,2.62-3.46,5.31v0.42H464.34z"/>
	<path class="st1" d="M471.92,35.19h4.16v3.23h0.08c0.92-2.31,2.46-3.77,4.81-3.77c0.46,0,0.73,0.08,1,0.15v4.23
		c-0.31-0.08-1.04-0.23-1.73-0.23c-1.89,0-4.16,0.85-4.16,4.69v12.39h-4.16V35.19z"/>
	<path class="st1" d="M484.42,35.19h3.92v2.42h0.12c1.04-1.85,3-2.96,5.31-2.96c3.16,0,5.16,1.42,5.16,5.62v15.62h-4.16v-14.2
		c0-2.69-0.81-3.73-2.89-3.73c-1.69,0-3.31,1.35-3.31,4.04v13.89h-4.16V35.19z"/>
	<path class="st1" d="M516.52,51.58c0,0.77,0.46,1.46,1.08,1.46c0.27,0,0.54-0.04,0.69-0.12v2.69c-0.5,0.23-1.23,0.5-2.04,0.5
		c-1.85,0-3.39-0.73-3.5-2.73h-0.08c-1.12,2.04-2.73,3.04-5.16,3.04c-3.31,0-5.39-1.85-5.39-5.81c0-4.62,2-5.58,4.81-6.5l3.23-0.89
		c1.5-0.42,2.42-0.85,2.42-2.66c0-1.89-0.65-3.08-2.85-3.08c-2.77,0-3.16,1.96-3.16,3.96h-3.92c0-4.39,1.81-6.81,7.27-6.81
		c3.66,0,6.58,1.42,6.58,5.08V51.58z M512.59,44.96c-1.08,0.85-3.39,1.35-4.62,1.92c-1.19,0.58-1.69,1.81-1.69,3.35
		c0,1.73,0.85,3.12,2.58,3.12c2.5,0,3.73-1.89,3.73-4.93V44.96z"/>
	<path class="st1" d="M520.75,35.19h3.92v2.42h0.12c1.04-1.85,3-2.96,5.31-2.96c3.16,0,5.16,1.42,5.16,5.62v15.62h-4.16v-14.2
		c0-2.69-0.81-3.73-2.89-3.73c-1.69,0-3.31,1.35-3.31,4.04v13.89h-4.16V35.19z"/>
	<path class="st1" d="M553.23,48.35c-0.27,4.96-1.96,8.08-7.08,8.08c-6,0-7.7-4.46-7.7-10.89c0-6.43,1.69-10.89,7.7-10.89
		c6.2-0.08,7.12,4.85,7.12,7.43h-4.16c0-1.92-0.54-4.43-2.96-4.35c-3,0-3.54,3.23-3.54,7.81c0,4.58,0.54,7.81,3.54,7.81
		c2.31,0.04,3.16-1.89,3.16-5H553.23z"/>
	<path class="st1" d="M559.92,46.08v1.19c0,2.77,0.35,6.31,3.46,6.31c2.96,0,3.31-3.39,3.31-4.62h3.92c0,4.58-2.77,7.47-7.27,7.47
		c-3.39,0-7.58-1-7.58-10.58c0-5.43,1.15-11.2,7.66-11.2c5.77,0,7.31,3.46,7.31,9.24v2.19H559.92z M566.58,43.23v-1.12
		c0-2.62-0.85-4.62-3.19-4.62c-2.66,0-3.46,2.62-3.46,5.31v0.42H566.58z"/>
</g>
<g>
	<path class="st2" d="M0.43,94.71V28.02H13.5l27.42,44.69V28.02H53.4v66.69H39.92L12.91,50.93v43.78H0.43z"/>
	<path class="st2" d="M67.71,94.71V28.02h28.33c7.12,0,12.3,0.6,15.53,1.8c3.23,1.2,5.81,3.33,7.75,6.39
		c1.94,3.06,2.91,6.57,2.91,10.51c0,5.01-1.47,9.14-4.4,12.4c-2.94,3.26-7.33,5.32-13.17,6.16c2.9,1.7,5.3,3.56,7.19,5.59
		c1.89,2.03,4.44,5.64,7.64,10.82l8.13,13.01h-16.1l-9.68-14.53c-3.46-5.17-5.83-8.43-7.1-9.78c-1.28-1.35-2.63-2.27-4.05-2.77
		c-1.43-0.5-3.69-0.75-6.78-0.75h-2.73v27.83H67.71z M81.18,56.22h9.96c6.46,0,10.49-0.27,12.1-0.82c1.61-0.55,2.87-1.49,3.78-2.82
		c0.91-1.33,1.37-3,1.37-5c0-2.24-0.6-4.06-1.8-5.44c-1.2-1.38-2.89-2.25-5.07-2.62c-1.09-0.15-4.37-0.23-9.83-0.23H81.18V56.22z"/>
	<path class="st2" d="M144.3,94.71l-15.84-66.69h13.85l10,45.81l12.17-45.81h16.03l11.72,46.58l10.23-46.58h13.55L199.9,94.71h-14.4
		l-13.26-49.86l-13.25,49.86H144.3z"/>
</g>
<g>
	<path class="st2" d="M252.1,73.27h3.64l3.56,17.44h0.08l3.77-17.44h4.1l3.68,17.44h0.08l3.44-17.44h3.64l-5.26,21.34h-3.81
		l-3.89-17.44h-0.08l-3.73,17.44h-4.06L252.1,73.27z"/>
	<path class="st2" d="M280.79,73.27h3.64l3.56,17.44h0.08l3.77-17.44h4.1l3.68,17.44h0.08l3.44-17.44h3.64l-5.26,21.34h-3.81
		l-3.89-17.44h-0.08l-3.73,17.44h-4.06L280.79,73.27z"/>
	<path class="st2" d="M309.44,73.27h3.64l3.56,17.44h0.08l3.77-17.44h4.1l3.68,17.44h0.08l3.44-17.44h3.64l-5.26,21.34h-3.81
		l-3.89-17.44h-0.08l-3.73,17.44h-4.06L309.44,73.27z"/>
	<path class="st2" d="M339.25,90.39h3.81v4.22h-3.81V90.39z"/>
	<path class="st2" d="M350.26,73.27h3.31v2.51h0.08c0.91-1.95,3.23-3.06,5.38-3.06c5.84,0,5.84,4.26,5.84,6.77v15.13h-3.48V79.88
		c0-1.63-0.12-4.3-3.27-4.3c-1.86,0-4.39,1.19-4.39,4.3v14.73h-3.48V73.27z"/>
	<path class="st2" d="M371.29,73.27h3.48v3.18h0.08c0.99-2.03,2.32-3.74,4.8-3.74c0.71,0,1.2,0.08,1.53,0.24v3.26
		c-0.33-0.04-0.75-0.16-1.86-0.16c-1.74,0-4.55,1.51-4.55,5.06v13.49h-3.48V73.27z"/>
	<path class="st2" d="M383.54,73.27h3.64l3.56,17.44h0.08l3.77-17.44h4.1l3.68,17.44h0.08l3.44-17.44h3.64l-5.26,21.34h-3.81
		l-3.89-17.44h-0.08l-3.72,17.44h-4.06L383.54,73.27z"/>
	<path class="st2" d="M423.58,79.52c0-2.71-0.75-4.18-3.27-4.18c-1.12,0-3.6,0.28-3.6,3.26c0,2.51,2.73,2.99,5.46,3.86
		c2.69,0.88,5.42,1.79,5.42,6.01c0,4.5-3.02,6.69-7.16,6.69c-7.54,0-7.62-5.37-7.62-7.56h3.48c0,2.59,0.75,4.94,4.14,4.94
		c1.12,0,3.68-0.52,3.68-3.54c0-2.87-2.73-3.46-5.42-4.34c-2.69-0.88-5.46-1.63-5.46-6.05c0-3.98,3.23-5.89,7.08-5.89
		c6.46,0,6.71,4.3,6.75,6.81H423.58z"/>
	<path class="st2" d="M443.32,79.76c0-2.07-0.87-4.42-3.52-4.42c-2.15,0-4.35,1.03-4.35,8.84c0,2.79,0.04,8.36,4.22,8.36
		c2.98,0,3.64-3.03,3.64-5.33h3.48c0,3.38-1.74,7.96-7.29,7.96c-5.42,0-7.7-3.62-7.7-10.95c0-5.33,1.08-11.5,7.91-11.5
		c6.04,0,7.08,4.58,7.08,7.05H443.32z"/>
	<path class="st2" d="M452.22,66.18h3.48v9.51h0.08c0.91-1.75,3.35-2.99,5.34-2.99c5.71,0,5.71,4.26,5.71,6.77v15.13h-3.48V79.88
		c0-1.63-0.12-4.3-3.27-4.3c-1.86,0-4.39,1.19-4.39,4.3v14.73h-3.48V66.18z"/>
	<path class="st2" d="M480.17,72.71c6.42,0,7.99,5.21,7.99,11.23s-1.61,11.23-7.99,11.23c-6.42,0-7.99-5.21-7.99-11.23
		S473.79,72.71,480.17,72.71z M484.52,83.94c0-4.62-0.7-8.6-4.43-8.6c-3.52,0-4.26,3.98-4.26,8.6s0.7,8.6,4.26,8.6
		C483.77,92.54,484.52,88.56,484.52,83.94z"/>
	<path class="st2" d="M500.41,72.71c6.42,0,7.99,5.21,7.99,11.23s-1.61,11.23-7.99,11.23c-6.42,0-7.99-5.21-7.99-11.23
		S494.04,72.71,500.41,72.71z M504.76,83.94c0-4.62-0.7-8.6-4.43-8.6c-3.52,0-4.26,3.98-4.26,8.6s0.7,8.6,4.26,8.6
		C504.02,92.54,504.76,88.56,504.76,83.94z"/>
	<path class="st2" d="M513.95,66.18h3.48v28.42h-3.48V66.18z"/>
	<path class="st2" d="M524.8,90.39h3.81v4.22h-3.81V90.39z"/>
	<path class="st2" d="M550.42,94.61h-3.31v-2.63h-0.08c-0.46,1.59-2.4,3.18-4.8,3.18c-5.26,0-7.24-4.5-7.24-11.23
		c0-4.46,0.74-11.23,7-11.23c1.99,0,4.1,1.15,4.88,2.99h0.08v-9.51h3.48V94.61z M542.68,92.3c3.85,0,4.47-3.5,4.47-8.36
		c0-4.14-0.74-8.36-4.47-8.36c-3.23,0-4.06,3.26-4.06,8.36S539.45,92.3,542.68,92.3z"/>
	<path class="st2" d="M559.74,84.34c0,3.26,0,8.2,4.27,8.2c3.31,0,3.77-3.34,3.77-4.94h3.48c0,2.27-1.41,7.56-7.45,7.56
		c-5.42,0-7.7-3.62-7.7-10.95c0-5.33,1.08-11.5,7.91-11.5c6.79,0,7.41,5.69,7.41,10.27v1.35H559.74z M567.77,81.71v-1.15
		c0-2.39-0.79-5.21-3.85-5.21c-3.64,0-4.06,4.3-4.06,5.57v0.8H567.77z"/>
</g>
</svg>
