<?xml version="1.0" standalone="no"?>
<!DOCTYPE svg PUBLIC "-//W3C//DTD SVG 20010904//EN"
 "http://www.w3.org/TR/2001/REC-SVG-20010904/DTD/svg10.dtd">
<svg version="1.0" xmlns="http://www.w3.org/2000/svg"
 width="642.000000pt" height="642.000000pt" viewBox="0 0 642.000000 642.000000"
 preserveAspectRatio="xMidYMid meet">
<metadata>
Created by potrace 1.14, written by Peter Selinger 2001-2017
</metadata>
<g transform="translate(0.000000,642.000000) scale(0.100000,-0.100000)"
fill="#000000" stroke="none">
<path d="M1283 3715 c-83 -35 -91 -152 -14 -198 72 -42 160 0 176 84 6 30 -19
85 -47 103 -34 22 -79 27 -115 11z"/>
<path d="M2159 3718 c-3 -45 -4 -1015 -1 -1025 3 -9 31 -13 93 -13 85 0 89 1
90 23 1 12 1 88 1 170 0 81 1 147 3 147 2 0 52 -76 111 -170 l107 -170 113 0
c63 0 114 2 114 5 0 3 -17 29 -37 58 -96 137 -216 313 -220 325 -3 7 49 84
115 171 l121 159 -109 0 -109 0 -102 -144 c-56 -79 -103 -144 -104 -144 -1 0
-3 129 -3 288 0 158 -1 297 -1 310 -1 21 -5 22 -91 22 -65 0 -90 -3 -91 -12z"/>
<path d="M1745 3641 l-90 -26 -3 -107 c-2 -76 -6 -108 -15 -109 -7 0 -33 -1
-59 -1 l-48 1 0 -75 0 -74 60 0 c55 0 60 -2 60 -22 0 -13 1 -102 1 -198 1 -96
4 -196 9 -223 16 -101 76 -141 209 -139 47 0 100 5 116 10 26 8 30 13 28 43
-2 19 -3 50 -4 70 l-1 36 -69 -1 c-98 -1 -97 -4 -99 232 l-1 192 86 0 85 0 0
75 0 75 -67 -1 c-38 0 -76 0 -85 0 -15 1 -18 16 -20 134 l-3 133 -90 -25z"/>
<path d="M439 3652 l-37 -3 0 -485 1 -484 106 -1 c332 -3 400 12 501 111 64
63 92 183 62 271 -16 45 -66 97 -115 119 l-38 17 28 18 c125 81 140 285 28
371 -74 56 -124 67 -320 68 -99 1 -196 0 -216 -2z m342 -160 c41 -16 69 -59
69 -104 0 -91 -57 -134 -181 -137 l-76 -2 -1 123 c-1 83 2 125 10 129 17 11
148 4 179 -9z m-6 -397 c108 -28 142 -151 61 -221 -40 -34 -77 -44 -177 -44
l-66 0 0 128 c0 70 3 132 8 138 10 12 125 12 174 -1z"/>
<path d="M5775 3640 c-38 -11 -73 -20 -77 -20 -5 0 -8 -49 -8 -110 0 -123 8
-112 -82 -112 -41 0 -40 2 -40 -83 0 -68 -3 -65 62 -65 l60 0 1 -207 c1 -227
3 -252 26 -300 18 -40 79 -70 149 -76 49 -4 173 8 182 18 6 6 2 83 -7 138 0 4
-22 5 -48 2 -107 -11 -116 6 -115 228 0 89 1 171 1 182 1 18 8 20 83 20 l83 0
0 70 0 70 -83 0 -82 0 -1 30 c-1 17 -1 76 -1 133 0 117 7 112 -103 82z"/>
<path d="M3059 3395 c-161 -52 -250 -195 -244 -395 4 -144 47 -231 142 -287
59 -34 126 -49 206 -47 192 7 316 121 345 316 16 107 -1 221 -44 290 -58 92
-133 130 -264 134 -65 3 -110 -1 -141 -11z m193 -170 c67 -50 91 -203 48 -304
-27 -62 -71 -93 -134 -94 -100 -1 -159 77 -159 212 0 92 26 158 76 191 41 27
129 24 169 -5z"/>
<path d="M3974 3396 c-50 -16 -99 -51 -125 -91 l-20 -30 3 60 3 60 -87 1 c-49
1 -88 -2 -89 -5 -1 -8 -1 -648 0 -684 l1 -28 92 3 93 3 1 200 c0 193 1 202 26
256 47 103 143 145 195 85 23 -27 23 -29 23 -287 l0 -259 93 0 92 0 1 208 c0
204 1 208 27 259 49 95 140 135 191 84 20 -21 21 -32 24 -286 l3 -265 94 0 95
0 -1 273 c0 233 -3 280 -18 325 -33 96 -90 132 -206 129 -94 -3 -147 -29 -202
-100 l-22 -28 -17 32 c-44 87 -154 121 -270 85z"/>
<path d="M5055 3404 c-11 -3 -50 -12 -87 -20 -38 -9 -68 -21 -68 -26 0 -6 5
-39 12 -73 l11 -63 71 20 c91 26 190 31 226 13 31 -16 50 -53 50 -100 0 -34
-1 -35 -42 -36 -69 -1 -104 -6 -165 -24 -129 -37 -194 -103 -201 -205 -10
-138 68 -223 206 -223 77 0 164 40 199 92 l23 34 -4 -57 -3 -56 88 0 89 0 -3
283 c-4 308 -7 330 -64 383 -48 44 -90 56 -208 60 -60 1 -119 1 -130 -2z m208
-454 c-5 -105 -134 -180 -198 -115 -32 31 -32 75 -2 109 24 28 102 52 164 51
l38 0 -2 -45z"/>
<path d="M1239 3391 c-1 -3 -2 -165 -3 -358 l-1 -353 92 0 c67 0 93 3 94 13 1
17 1 646 0 678 l-1 27 -90 0 c-49 0 -91 -3 -91 -7z"/>
</g>
</svg>
