<?xml version="1.0" standalone="no"?>
<!DOCTYPE svg PUBLIC "-//W3C//DTD SVG 20010904//EN"
 "http://www.w3.org/TR/2001/REC-SVG-20010904/DTD/svg10.dtd">
<svg version="1.0" xmlns="http://www.w3.org/2000/svg"
 width="642.000000pt" height="642.000000pt" viewBox="0 0 642.000000 642.000000"
 preserveAspectRatio="xMidYMid meet">
<metadata>
Created by potrace 1.14, written by Peter Selinger 2001-2017
</metadata>
<g transform="translate(0.000000,642.000000) scale(0.100000,-0.100000)"
fill="#000000" stroke="none">
<path d="M493 4080 c-45 -3 -84 -8 -88 -12 -9 -9 -13 -66 -5 -79 4 -5 29 -12
56 -15 27 -3 50 -7 52 -9 1 -1 3 -196 2 -433 l0 -431 58 -12 c31 -7 107 -12
167 -12 125 0 192 19 258 74 88 73 122 167 120 329 -1 109 -26 181 -82 237
-86 86 -274 76 -343 -17 -20 -27 -48 -44 -33 -20 5 9 10 293 6 380 -1 28 -12
30 -168 20z m404 -449 c41 -21 58 -78 58 -191 -1 -87 -4 -112 -22 -145 -28
-53 -60 -81 -105 -93 -38 -10 -138 -9 -157 2 -6 4 -9 59 -7 149 3 158 17 207
73 260 49 45 99 51 160 18z"/>
<path d="M2210 4082 c-86 -5 -90 -7 -90 -57 0 -36 4 -45 18 -47 9 0 22 -2 27
-3 6 -2 24 -3 40 -4 l30 -1 0 -385 c0 -335 -2 -386 -15 -389 -8 -3 -34 -8 -57
-11 l-43 -7 0 -46 0 -47 178 0 177 0 2 47 c1 43 -1 48 -23 53 -81 17 -73 3
-72 125 0 60 4 107 8 105 5 -3 61 -77 125 -165 65 -88 120 -161 124 -161 3 -1
52 -2 109 -3 l102 -2 0 48 c0 26 -3 48 -7 49 -5 0 -15 2 -23 4 -8 2 -28 6 -44
9 -35 6 -30 1 -140 145 l-88 113 38 42 c133 142 159 166 185 166 50 0 59 9 59
59 l0 46 -170 0 c-93 0 -171 -2 -171 -5 -1 -3 -2 -23 -3 -45 -2 -35 1 -41 26
-50 15 -5 28 -14 29 -18 0 -5 -28 -40 -63 -79 -35 -39 -67 -77 -71 -84 -4 -8
-12 -14 -16 -14 -4 0 -8 135 -8 300 0 165 -3 303 -6 307 -7 6 -99 9 -167 5z"/>
<path d="M1328 4058 c-2 -7 -4 -44 -4 -83 l1 -70 70 3 c39 2 74 7 79 12 7 7
11 85 7 138 -1 8 -23 12 -75 12 -50 0 -75 -4 -78 -12z"/>
<path d="M1803 4002 c-34 -10 -65 -20 -69 -24 -3 -4 -7 -53 -8 -110 l-1 -103
-60 0 -60 0 -3 -57 c-3 -64 -9 -60 79 -60 l47 -1 0 -223 c0 -200 2 -227 20
-267 13 -29 31 -51 50 -61 40 -21 124 -29 197 -19 l60 8 -1 35 c-4 98 0 91
-44 84 -63 -10 -106 2 -119 34 -10 23 -17 261 -12 395 1 15 11 17 79 15 42 -1
82 0 87 4 6 3 9 30 7 60 l-4 55 -79 -2 c-44 -1 -82 2 -86 8 -3 5 -5 62 -5 128
0 65 -3 119 -6 118 -4 0 -35 -8 -69 -17z"/>
<path d="M5790 4001 c-30 -9 -60 -19 -66 -23 -6 -4 -10 -46 -9 -107 0 -62 -3
-102 -10 -104 -5 -2 -34 -3 -62 -2 -29 1 -54 -1 -54 -4 -1 -4 -2 -30 -3 -58
-2 -50 -1 -53 23 -54 15 0 44 -1 65 -2 l40 -2 1 -230 c1 -189 4 -235 17 -260
35 -65 81 -84 194 -79 111 4 119 7 117 35 -1 13 -3 40 -4 60 l-3 36 -57 -4
c-65 -6 -93 6 -107 44 -5 16 -9 111 -8 213 l1 185 65 2 c36 1 75 2 88 2 20 1
22 6 22 59 l0 58 -77 -1 c-43 -1 -84 1 -90 3 -9 3 -12 34 -12 110 1 133 1 142
-8 141 -5 -1 -33 -9 -63 -18z"/>
<path d="M3145 3766 c-160 -49 -246 -184 -240 -376 8 -216 118 -324 324 -316
235 8 368 222 307 495 -18 81 -74 148 -155 184 -53 23 -178 30 -236 13z m178
-141 c96 -70 99 -308 6 -387 -63 -53 -157 -50 -214 8 -41 41 -58 95 -57 185 1
98 30 158 97 201 39 25 129 21 168 -7z"/>
<path d="M4035 3767 c-26 -7 -58 -30 -91 -62 l-50 -50 0 55 1 55 -114 -2 c-62
-1 -119 -4 -127 -7 -9 -3 -14 -21 -14 -50 l0 -44 59 -7 58 -7 0 -224 c0 -252
9 -225 -80 -239 l-38 -6 3 -47 3 -47 183 0 182 -1 0 48 c0 51 -3 54 -75 60
l-30 3 0 120 c-1 141 12 211 50 264 56 82 165 98 200 31 12 -24 15 -75 15
-277 l0 -249 127 1 128 0 1 47 c1 52 5 49 -86 61 -13 2 -15 27 -15 152 0 135
2 154 23 196 28 57 59 87 108 104 49 16 84 6 110 -33 20 -30 22 -44 22 -269 1
-131 1 -243 2 -248 0 -7 46 -11 128 -10 l127 0 3 46 c3 50 -7 59 -71 59 -15 0
-30 6 -32 13 -3 7 -7 107 -8 222 -4 232 -10 261 -67 309 -40 33 -69 41 -145
40 -74 0 -144 -35 -192 -95 l-31 -39 -7 28 c-6 31 -44 71 -84 92 -33 17 -126
20 -176 7z"/>
<path d="M5080 3769 c-25 -4 -61 -13 -81 -18 l-36 -11 3 -87 c1 -49 2 -93 3
-99 1 -6 11 -10 24 -8 12 1 32 3 44 3 19 1 23 8 29 50 7 55 12 59 89 67 60 7
116 -12 139 -48 17 -26 28 -99 17 -115 -3 -6 -38 -13 -77 -16 -202 -19 -315
-101 -316 -230 -1 -91 49 -157 135 -178 92 -22 191 11 252 83 l27 32 -4 -51
c-3 -38 -1 -54 9 -57 16 -7 223 3 235 10 5 3 8 25 8 50 0 43 0 44 -35 45 -19
1 -39 3 -45 4 -5 1 -16 3 -22 4 -10 1 -13 51 -14 214 -1 196 -2 215 -22 254
-22 43 -58 74 -108 94 -36 14 -193 19 -254 8z m233 -391 c2 -7 0 -29 -6 -48
-22 -85 -83 -140 -153 -140 -50 0 -82 22 -89 63 -13 67 26 108 118 127 66 12
125 12 130 -2z"/>
<path d="M1268 3762 l-58 -3 0 -49 c0 -46 2 -50 25 -51 14 -1 30 -3 35 -4 6
-1 20 -3 33 -4 l22 -1 0 -225 c0 -192 -2 -226 -15 -229 -8 -3 -34 -8 -57 -11
-42 -7 -45 -10 -45 -55 0 -11 0 -26 1 -33 1 -10 44 -12 189 -12 l187 0 0 45
c0 48 2 46 -87 65 l-27 5 1 268 c0 147 -1 274 -1 282 -1 16 -62 19 -203 12z"/>
<path d="M4940 2624 c-37 -16 -60 -52 -62 -98 -1 -34 -3 -36 -35 -36 -26 0
-33 -4 -33 -19 0 -15 8 -21 33 -23 l32 -3 1 -130 0 -130 25 0 24 0 0 130 1
130 44 5 c31 3 45 10 45 20 0 11 -13 16 -48 18 -50 3 -52 8 -32 71 7 24 53 41
83 30 19 -7 22 -5 22 16 0 14 -3 25 -7 26 -45 5 -69 3 -93 -7z"/>
<path d="M1890 2561 l0 -69 -65 -4 c-55 -3 -69 -8 -95 -33 -39 -38 -54 -85
-47 -156 6 -69 29 -104 77 -116 48 -12 74 -6 104 22 l26 24 0 -24 c0 -20 5
-25 23 -25 l24 0 1 225 1 225 -24 0 c-24 0 -25 -2 -25 -69z m-1 -186 c-3 -105
-31 -155 -89 -155 -51 0 -81 66 -66 146 11 57 45 84 106 84 l51 0 -2 -75z"/>
<path d="M2242 2405 l0 -225 24 2 c23 2 24 5 24 90 0 47 4 98 10 112 14 39 47
66 79 66 46 0 56 -22 58 -134 1 -56 2 -109 2 -119 1 -13 7 -17 24 -15 21 3 22
6 23 123 1 131 -10 171 -49 180 -62 13 -90 9 -121 -20 l-26 -24 0 94 c0 94 0
95 -24 95 l-24 0 0 -225z"/>
<path d="M5359 2623 c0 -5 -1 -105 -2 -223 l0 -215 26 -1 27 -1 0 223 0 224
-25 0 c-14 0 -25 -3 -26 -7z"/>
<path d="M2879 2599 c-9 -17 -8 -25 4 -37 29 -28 73 12 47 43 -17 21 -37 19
-51 -6z"/>
<path d="M785 2592 c-7 -4 -11 -80 -10 -207 l0 -200 25 0 24 0 -1 173 -2 172
66 -107 c36 -60 81 -134 100 -165 33 -57 57 -78 87 -78 14 0 16 26 16 210 l0
210 -24 0 -24 0 1 -165 c1 -90 -1 -161 -4 -157 -3 4 -50 78 -103 165 -78 125
-102 157 -119 157 -12 0 -27 -4 -32 -8z"/>
<path d="M3520 2591 c0 -11 85 -327 101 -378 9 -27 16 -33 39 -33 32 0 25 -18
98 233 l29 98 32 -113 c18 -62 39 -136 47 -164 14 -49 17 -52 48 -52 18 0 33
5 33 12 1 6 24 93 52 194 28 101 51 190 51 198 0 10 -8 14 -22 12 -23 -3 -42
-59 -97 -283 l-17 -70 -28 100 c-65 229 -75 255 -100 255 -21 0 -27 -12 -61
-132 -21 -73 -44 -153 -51 -178 -12 -45 -12 -45 -19 -15 -7 29 -71 273 -81
308 -6 18 -54 25 -54 8z"/>
<path d="M4673 2593 c-8 -3 -13 -24 -13 -54 0 -47 -1 -49 -29 -49 -17 0 -31
-6 -35 -16 -9 -24 -9 -24 29 -24 l35 0 0 -115 c0 -102 2 -117 20 -135 20 -20
40 -24 90 -20 32 2 33 4 26 28 -5 14 -13 18 -31 14 -47 -8 -55 11 -55 124 l0
104 46 0 c38 0 45 3 42 18 -2 12 -15 18 -46 20 l-42 3 0 55 c0 54 -5 60 -37
47z"/>
<path d="M1269 2490 c-47 -13 -69 -30 -90 -72 -30 -58 -24 -156 11 -194 98
-106 257 -27 249 123 -5 106 -78 167 -170 143z m95 -73 c16 -22 21 -43 21 -89
0 -53 -3 -62 -28 -84 -16 -13 -41 -24 -57 -24 -16 0 -41 11 -57 24 -25 22 -28
30 -28 89 0 56 4 69 25 92 34 36 94 32 124 -8z"/>
<path d="M1586 2469 c-32 -28 -33 -28 -32 -6 1 16 -5 23 -24 25 l-25 3 2 -138
c1 -76 2 -146 2 -155 1 -12 8 -17 25 -16 24 2 24 4 24 95 0 107 18 151 68 168
19 6 29 17 29 29 0 30 -33 27 -69 -5z"/>
<path d="M2132 2484 c-18 -7 -32 -18 -32 -24 0 -5 -5 -10 -10 -10 -6 0 -10 8
-8 18 2 11 -4 18 -19 20 -26 4 -25 8 -25 -158 0 -159 -1 -152 25 -148 21 3 22
8 23 83 0 44 4 95 8 112 8 35 48 73 75 73 20 0 25 36 7 43 -6 3 -26 -1 -44 -9z"/>
<path d="M2645 2485 c-53 -19 -92 -83 -89 -145 1 -14 2 -37 3 -51 0 -14 11
-41 24 -60 27 -41 88 -59 161 -47 55 8 61 11 53 31 -4 12 -20 14 -69 10 -52
-4 -67 -2 -86 13 -26 21 -47 93 -28 95 6 1 47 2 91 4 44 1 86 3 93 3 31 4 0
122 -36 137 -44 19 -82 22 -117 10z m92 -49 c6 -6 14 -22 18 -36 6 -26 6 -26
-69 -28 -88 -3 -97 8 -46 59 23 24 34 28 57 23 15 -4 33 -12 40 -18z"/>
<path d="M3146 2490 c-16 -5 -39 -19 -52 -31 l-23 -22 4 25 c4 22 1 25 -21 24
l-25 -1 -1 -115 c0 -200 -1 -190 26 -190 23 0 24 3 24 68 1 141 1 139 31 171
20 21 38 31 59 31 48 0 56 -19 57 -148 0 -113 1 -117 23 -120 21 -3 22 0 23
60 3 188 -5 232 -45 243 -42 12 -51 13 -80 5z"/>
<path d="M4172 2489 c-65 -13 -102 -71 -102 -160 0 -62 31 -123 70 -139 31
-13 93 -15 138 -5 23 5 32 12 32 26 0 17 -5 19 -55 13 -72 -9 -111 7 -125 52
-19 57 -13 60 93 59 92 -2 95 -1 100 21 5 27 -16 91 -36 111 -20 20 -75 31
-115 22z m81 -61 c9 -11 17 -29 17 -39 0 -16 -8 -18 -70 -18 -38 1 -72 4 -74
8 -9 13 19 55 44 68 30 15 59 8 83 -19z"/>
<path d="M4456 2489 c-54 -9 -90 -50 -82 -93 6 -31 50 -76 74 -76 31 0 72 -31
72 -55 0 -33 -31 -47 -93 -43 -46 3 -52 1 -52 -17 0 -15 8 -21 35 -25 91 -14
160 27 160 95 0 39 -25 63 -94 89 -84 32 -68 92 24 89 43 -2 50 0 50 16 0 22
-36 30 -94 20z"/>
<path d="M5102 2489 c-23 -4 -46 -11 -51 -14 -7 -4 -8 -29 -2 -42 1 0 20 4 44
11 23 7 48 11 55 10 6 -1 16 -2 21 -3 20 -2 41 -34 41 -61 0 -25 -4 -29 -27
-28 -47 1 -108 -21 -133 -47 -25 -27 -30 -86 -9 -111 31 -37 116 -32 152 8 17
20 17 20 17 -4 0 -18 6 -24 25 -26 l25 -2 0 120 c0 66 -5 130 -11 143 -19 42
-76 60 -147 46z m104 -191 c-8 -42 -43 -78 -75 -78 -33 0 -46 10 -53 37 -7 27
14 48 62 61 65 19 73 16 66 -20z"/>
<path d="M5585 2490 c-73 -16 -111 -75 -107 -169 4 -100 47 -141 145 -142 59
-1 97 13 97 36 0 11 -14 13 -69 8 -66 -6 -70 -5 -95 22 -17 18 -26 39 -26 59
l0 32 100 -2 100 -1 0 35 c0 87 -63 140 -145 122z m77 -60 c37 -45 25 -57 -57
-59 -86 -2 -96 10 -47 59 34 33 77 33 104 0z"/>
<path d="M5928 2492 c-14 -2 -38 -14 -52 -27 l-26 -24 0 25 c0 21 -4 25 -22
22 -23 -3 -23 -5 -23 -153 0 -148 0 -150 23 -153 21 -3 22 -1 22 76 0 44 3 93
6 111 9 41 50 81 84 81 46 0 55 -22 57 -139 1 -58 2 -112 2 -118 1 -7 10 -13
20 -13 10 0 21 6 23 13 4 10 3 210 -1 243 -4 36 -58 63 -113 56z"/>
<path d="M2885 2478 c-2 -7 -3 -76 -2 -153 2 -137 3 -140 25 -143 l22 -3 0
155 c0 150 -1 156 -20 156 -11 0 -23 -6 -25 -12z"/>
<path d="M3357 2382 c-9 -2 -17 -7 -17 -10 1 -21 22 -29 78 -31 49 -1 64 2 68
14 4 9 4 18 1 21 -6 7 -104 11 -130 6z"/>
</g>
</svg>
