<?xml version="1.0" encoding="UTF-8"?>
<svg id="Ebene_1" data-name="Ebene 1" xmlns="http://www.w3.org/2000/svg" version="1.1" viewBox="0 0 308 134">
  <defs>
    <style>
      .cls-1 {
        fill: #1964ff;
      }

      .cls-1, .cls-2 {
        stroke-width: 0px;
      }

      .cls-2 {
        fill: #07262d;
      }
    </style>
  </defs>
  <g>
    <path class="cls-1" d="M198.1,98.7c-1.1-.3-2.3-.5-3.5-.5-2.9,0-4.3,1.2-4.3,3.3,0,4.7,9.5,3.2,9.5,9.7s-2.5,5.9-7.3,5.9-3.2-.2-4.5-.6l.3-2.2c1.3.5,2.8.8,4.3.8,2.8,0,4.7-1,4.7-3.6,0-4.9-9.4-3.2-9.4-9.7s2.5-5.4,6.9-5.4,2.5.1,3.6.4l-.3,2.1Z"/>
    <path class="cls-1" d="M212,116.8c0-1.1,0-2.3.1-3.1h0c-.7,1.9-2.6,3.4-5.2,3.4s-4.1-1.5-4.1-4,3.2-5.1,9.1-5.1v-.9c0-2.5-.8-3.7-3.4-3.7s-3.1.4-4.5,1l-.4-1.8c1.6-.6,3.4-1.1,5.2-1.1,4,0,5.3,2,5.3,5.2v5.5c0,1.5,0,3.1,0,4.5h-2.2ZM211.9,109.7c-5.3,0-6.8,1.5-6.8,3.1s1,2.5,2.5,2.5c2.6,0,4.4-2.6,4.4-5.1v-.5Z"/>
    <path class="cls-1" d="M229.3,116.2c-1.3.5-3,.8-4.6.8-3.3,0-6.4-1.5-6.4-7.1s2.5-8.2,7.1-8.2,2.8.2,3.8.7l-.5,1.9c-1-.4-2.3-.7-3.6-.7-2.9,0-4.5,2.5-4.5,5.9s1,5.6,4.5,5.6,2.6-.3,3.7-.8l.4,1.9Z"/>
    <path class="cls-1" d="M242.5,116.8v-9.6c0-2.3-.6-3.7-2.8-3.7s-4.6,2.6-4.6,6.2v7.1h-2.2v-21.9h2.2v7.3c0,1,0,2.2-.2,3h0c.9-2.2,2.7-3.6,5.3-3.6s4.5,2.1,4.5,4.8v10.4h-2.2Z"/>
    <path class="cls-1" d="M257.5,103.8c-.9-.3-2-.5-3-.5-2.1,0-3.2.9-3.2,2.2,0,3.5,7.4,1.7,7.4,7s-2.1,4.5-6,4.5-2.6-.2-3.6-.4l.2-2.1c1,.4,2.4.6,3.6.6,2.2,0,3.4-.9,3.4-2.4,0-3.6-7.3-1.7-7.3-7s2-4.2,5.7-4.2,2,.1,3,.3l-.2,1.9Z"/>
    <path class="cls-1" d="M273.5,116.2c-1.6.5-3.3.9-5,.9-4.5,0-6.9-2.4-6.9-7.6s2.4-7.8,6.6-7.8,5.8,2.8,5.8,6.1,0,1.6,0,1.6h-10c0,4.1,1.6,5.9,4.9,5.9s2.9-.3,4.4-.8l.3,1.8ZM271.6,107.6c0-2.7-1.3-4.3-3.6-4.3s-3.7,1.5-4,4.3h7.6Z"/>
    <path class="cls-1" d="M287.8,116.8v-9.6c0-2.3-.6-3.7-2.8-3.7s-4.6,2.6-4.6,6.2v7.1h-2.2v-14.9h2.2c0,1,0,2.4-.2,3.3h0c.8-2.2,2.7-3.6,5.3-3.6s4.5,2.1,4.5,4.8v10.4h-2.2Z"/>
  </g>
  <g>
    <path class="cls-2" d="M36.1,73.7c-4.6,0-8-.5-11.6-1.4V30.8c-1.6-.3-3.7-.5-5.6-.7v-4.3c3.7-.4,8.3-.7,12.6-.5v15c0,1.9-.2,4.5-.5,6.2h0c1.7-4.1,5.6-6.6,10.3-6.6,7.7,0,12,5.5,12,15.3s-6.4,18.4-17.3,18.4ZM39.6,45.8c-5.2,0-8,6.1-8,11.6v10.1c1.4.5,3.1.7,5.2.7,5.5,0,9.3-3.4,9.3-12.2s-2.1-10.1-6.5-10.1Z"/>
    <path class="cls-2" d="M57.8,73.1v-4.3c1.7-.4,3.7-.7,5.7-.8v-21.9c-1.6-.3-3.8-.5-5.7-.7v-4.3c3.7-.4,8.4-.7,12.6-.5v27.3c1.9.1,3.9.5,5.4.8v4.3h-18Z"/>
    <path class="cls-2" d="M91.9,73.7c-6.9,0-9-2.7-9-9.9v-17.7h-6.2v-5.4h6.2v-10.3l7-1.9v12.2h8.5v5.4h-8.5v15.6c0,4.8,1,6.1,4.2,6.1s2.8-.2,4-.5l.6,5.6c-2,.5-4.6.8-6.8.8Z"/>
    <path class="cls-2" d="M126.5,73.1l-12.3-16.7v11.6c1.6.1,3.3.4,4.5.8v4.4h-16.9v-4.3c1.6-.4,3.5-.7,5.4-.8V30.8c-1.6-.3-3.7-.5-5.6-.7v-4.3c3.6-.4,8.3-.7,12.6-.5v30l8.6-9.7c-1.4-.1-2.7-.3-3.5-.7v-4.4h16.4v4.4c-1.3.3-2.9.6-4.5.7l-9.1,9.8,9.6,12.4c1.5.2,3.3.5,5,.8v4.4h-10.1Z"/>
    <path class="cls-2" d="M154.1,73.8c-9,0-14.8-5-14.8-16.3s6.3-17.5,16.1-17.5,14.8,4.8,14.8,16.3-6.3,17.5-16.1,17.5ZM154.8,45.9c-4.3,0-8.4,3.3-8.4,11s2.8,10.9,8.3,10.9,8.3-3.5,8.3-10.9-2.8-11-8.2-11Z"/>
    <path class="cls-2" d="M220.1,73.1v-20.7c0-4-.9-6.6-4.6-6.6s-8.4,4.6-8.4,11.8v10.3c1.7.1,3.5.4,5,.8v4.4h-12v-20.7c0-3.7-.7-6.6-4.6-6.6s-8.4,5-8.4,11.8v10.3c1.7.1,3.5.4,5,.8v4.4h-17.7v-4.3c1.7-.4,3.7-.7,5.7-.8v-21.9c-1.6-.3-3.8-.5-5.7-.7v-4.3c3.7-.4,8.4-.7,12.4-.5,0,1.7-.1,4.4-.5,6.4h0c1.9-4.2,6-7.1,11-7.1s8.4,4.1,9,7c1.4-3.1,5-7,10.9-7s9.7,3.4,9.7,10.7v17.3c1.9.1,3.8.5,5.4.8v4.3h-12.4Z"/>
    <path class="cls-2" d="M255.6,73.1c0-2.1,0-4.2.3-6h0c-1.6,3.8-5.7,6.7-10.8,6.7s-9.2-3.5-9.2-8.8,7.5-11.2,19.2-11.3v-2.2c0-4.1-1.5-6.4-6.3-6.4s-3.9.4-5.5.9c-.1,1.4-.4,3.1-.7,4.8h-4.3v-9.2c3.3-1,7.3-1.8,11.1-1.8,10,0,12.8,4.3,12.8,11v16.7c1.6.3,3.7.5,5.4.7v4.3c-3.4.4-8.2.7-12,.5ZM255,58.4c-9,0-12.4,2.2-12.4,5.6s1.8,4.4,4.5,4.4c4.8,0,7.9-4.6,7.9-9.2v-.7Z"/>
    <path class="cls-2" d="M283.2,73.7c-6.9,0-9-2.7-9-9.9v-17.7h-6.2v-5.4h6.2v-10.3l7-1.9v12.2h8.5v5.4h-8.5v15.6c0,4.8,1,6.1,4.2,6.1s2.8-.2,4-.5l.6,5.6c-2,.5-4.6.8-6.8.8Z"/>
    <polygon class="cls-1" points="71 33.3 71 26.1 63.5 26.1 63.5 33.9 71 33.3 71 33.3"/>
  </g>
</svg>