<?xml version="1.0" encoding="UTF-8"?>
<svg width="139px" height="33px" viewBox="0 0 139 33" version="1.1" xmlns="http://www.w3.org/2000/svg" xmlns:xlink="http://www.w3.org/1999/xlink">
    <!-- Generator: Sketch 63.1 (92452) - https://sketch.com -->
    <title>Group 2</title>
    <desc>Created with Sketch.</desc>
    <g id="Feinlayout-final" stroke="none" stroke-width="1" fill="none" fill-rule="evenodd">
        <g id="Newsletter-Copy-2" transform="translate(-464.000000, -52.000000)" fill-rule="nonzero">
            <g id="Group-2" transform="translate(464.000000, 52.000000)">
                <path d="M21.1116971,12.6199228 C19.7433463,10.8521515 17.6908202,9.91916111 15.1007278,9.91916111 C13.5368984,9.91916111 12.0708083,10.3611039 10.8490666,11.1467801 C9.62732483,11.9324562 8.69880111,13.0618656 8.16123475,14.3876941 L8.16123475,14.3876941 C8.35671343,13.3073894 8.50332243,11.5887229 8.50332243,10.2137897 L8.50332243,0.049104758 L8.50332243,0.049104758 C7.81914707,0 7.1349717,0 6.45079633,0 C4.44713989,0 2.15026544,0.147314274 0,0.343733306 L0,0.343733306 L0,3.29001878 L0,3.29001878 C1.17287206,3.3882283 2.59009247,3.53554257 3.71409486,3.73196161 L3.71409486,31.8198832 L3.71409486,31.8198832 C6.25531765,32.458245 8.60106177,32.7528736 11.5332419,32.7528736 C15.1007278,32.7528736 18.0817776,31.5743594 20.085434,29.3646453 C22.0890905,27.2040359 23.1642232,24.0613314 23.1642232,20.280265 C23.2130929,16.9902463 22.5289175,14.3876941 21.1116971,12.6199228 Z M16.4690785,27.1058264 C15.3939458,28.3825501 13.878986,28.9718072 11.9241993,28.9718072 C10.5069789,28.9718072 9.38297648,28.8244929 8.45445277,28.5298644 L8.45445277,21.704303 C8.45445277,19.7892175 8.94314946,17.8250271 9.8228035,16.4009892 C10.5069789,15.2715797 11.7775903,13.8966465 13.8301164,13.8966465 C15.2962064,13.8966465 16.3713392,14.4859036 17.1043842,15.6644178 C17.8374292,16.7938272 18.1795169,18.5124938 18.1795169,20.7713126 C18.2283866,23.5702838 17.6419506,25.6817884 16.4690785,27.1058264 Z" id="Shape" fill="#07262D"></path>
                <path d="M51.5757902,28.4787034 L51.5757902,28.4787034 L51.5757902,28.4787034 C50.6271552,28.6729839 49.6785201,28.7701241 48.8297414,28.7701241 C47.6314655,28.7701241 46.9823994,28.5272736 46.533046,27.9444322 C46.0836925,27.3615908 45.933908,26.3901885 45.933908,24.6902345 L45.933908,14.2962299 L51.7755029,14.2962299 L51.7755029,10.6049011 L45.8839799,10.6049011 L45.8839799,2.39655172 L41.0409483,3.65937471 L41.0409483,3.65937471 L41.0409483,10.556331 L36.7471264,10.556331 L36.7471264,14.2476598 L41.0409483,14.2476598 L41.0409483,26.0987678 C41.0409483,28.6729839 41.4403736,30.2757977 42.3390805,31.2472 C43.2877155,32.3157425 44.7855603,32.7528736 47.2320402,32.7528736 C48.6799569,32.7528736 50.5272989,32.5585931 51.9252874,32.2186023 L51.9252874,32.2186023 L51.5757902,28.4787034 Z" id="Path" fill="#07262D"></path>
                <path d="M70.5915971,31.954023 L62.1565289,20.7706804 L62.1565289,28.5167186 C63.297744,28.613544 64.389341,28.7587823 65.2328479,29.0492587 L65.2328479,31.954023 L53.6718427,31.954023 L53.6718427,29.0492587 C54.7634397,28.807195 56.103127,28.5651313 57.3435782,28.4683058 L57.3435782,3.68098375 C56.2519812,3.48733279 54.8130578,3.34209458 53.5229885,3.2452691 L53.5229885,0.340504797 C56.0038909,0.0984411047 59.229064,-0.095209849 62.1069108,0.0500283663 L62.1069108,20.0929021 L67.9618405,13.6055951 C66.9694795,13.5087696 66.1259727,13.3635314 65.5305562,13.1698805 L65.5305562,10.2651162 L76.744235,10.2651162 L76.744235,13.1698805 C75.8511102,13.4119442 74.7098951,13.5571824 73.667916,13.6540079 L67.46566,20.1897276 L74.0648604,28.4198931 C75.1068394,28.5651313 76.2976726,28.7103695 77.4885057,29.0008459 L77.4885057,31.9056103 L70.5915971,31.9056103 L70.5915971,31.954023 Z" id="Path" fill="#07262D"></path>
                <path d="M87.4368085,32.7528736 C81.4192985,32.7528736 77.4885057,29.3299614 77.4885057,21.5415959 C77.4885057,14.7453789 81.7104684,9.5862069 88.310318,9.5862069 C94.1337147,9.5862069 98.2586207,12.8602968 98.2586207,20.7478771 C98.2586207,27.5937015 93.9881298,32.7528736 87.4368085,32.7528736 Z M87.9220915,13.6540156 C85.0103932,13.6540156 82.3413363,15.8863497 82.3413363,21.1943439 C82.3413363,26.006264 84.2339403,28.6850649 87.9220915,28.6850649 C90.9793748,28.6850649 93.5028467,26.2543011 93.5028467,21.1943439 C93.4543184,16.3328165 91.5617145,13.6540156 87.9220915,13.6540156 Z" id="Shape" fill="#07262D"></path>
                <path d="M130.671558,31.954023 L130.671558,17.9863474 C130.671558,15.300256 130.034677,13.542087 127.536144,13.542087 C124.694676,13.542087 121.902198,16.6677207 121.902198,21.5026853 L121.902198,28.4865231 C123.028987,28.5841992 124.302749,28.7307132 125.282566,29.0237414 L125.282566,31.954023 L117.199078,31.954023 L117.199078,17.9863474 C117.199078,15.4956081 116.70917,13.542087 114.063664,13.542087 C111.075223,13.542087 108.429718,16.9119109 108.429718,21.5026853 L108.429718,28.4865231 C109.556507,28.5841992 110.830269,28.7307132 111.810086,29.0237414 L111.810086,31.954023 L99.8563218,31.954023 L99.8563218,29.0237414 C100.983111,28.7795513 102.354854,28.5353611 103.677607,28.4376851 L103.677607,13.6886011 C102.599809,13.493249 101.130084,13.3467349 99.8563218,13.2490589 L99.8563218,10.3187773 C102.305864,10.0745872 105.539259,9.87923505 108.184764,10.0257491 C108.184764,11.1490237 108.086782,13.0048687 107.890819,14.3234955 L107.93981,14.3723335 C109.213572,11.4420519 112.006049,9.5862069 115.386417,9.5862069 C119.64862,9.5862069 121.069354,12.3699744 121.461281,14.3234955 C122.441097,12.2722983 124.841648,9.5862069 128.858897,9.5862069 C133.072109,9.5862069 135.374678,11.8815941 135.374678,16.8142348 L135.374678,28.4376851 C136.64844,28.5353611 137.922202,28.7307132 139,29.0237414 L139,31.954023 L130.671558,31.954023 Z" id="Path" fill="#07262D"></path>
                <path d="M36.6991954,29.0513672 C35.5967816,28.7611016 34.3026437,28.5675912 33.1043678,28.470836 L33.1043678,10.232482 L33.1043678,10.232482 C32.4812644,10.1841044 31.8102299,10.1841044 31.0912644,10.1841044 C29.0781609,10.1841044 26.8254023,10.3292372 24.7643678,10.5227476 L24.7643678,10.5227476 L24.7643678,13.4254034 L24.7643678,13.4254034 C25.9626437,13.5221586 27.4485057,13.6672914 28.5029885,13.8608017 L28.5029885,28.470836 C27.3047126,28.5675912 25.9626437,28.7611016 24.7643678,29.0513672 L24.7643678,29.0513672 L24.7643678,31.954023 L36.7471264,31.954023 L36.6991954,29.0513672 L36.6991954,29.0513672 Z" id="Path" fill="#07262D"></path>
                <polygon id="Path" fill="#4285F4" points="33.391954 5.53985507 33.391954 0.798850575 28.5029885 0.798850575 28.5029885 5.97525344"></polygon>
            </g>
        </g>
    </g>
</svg>