<?xml version="1.0" standalone="no"?>
<!DOCTYPE svg PUBLIC "-//W3C//DTD SVG 20010904//EN"
 "http://www.w3.org/TR/2001/REC-SVG-20010904/DTD/svg10.dtd">
<svg version="1.0" xmlns="http://www.w3.org/2000/svg"
 width="1232.000000pt" height="1232.000000pt" viewBox="0 0 1232.000000 1232.000000"
 preserveAspectRatio="xMidYMid meet">
<metadata>
Created by potrace 1.14, written by Peter Selinger 2001-2017
</metadata>
<g transform="translate(0.000000,1232.000000) scale(0.100000,-0.100000)"
fill="#000000" stroke="none">
<path d="M917 7824 c-1 -2 -35 -5 -76 -8 -41 -3 -77 -8 -80 -11 -10 -11 -7
-156 4 -164 5 -5 39 -12 75 -15 36 -3 74 -8 85 -10 11 -3 28 -5 38 -5 16 -1
17 -47 17 -830 0 -470 4 -832 9 -835 5 -3 26 -8 47 -11 22 -3 46 -8 54 -11 69
-24 374 -37 470 -20 254 46 454 222 531 465 30 95 31 102 34 256 5 228 -35
366 -141 484 -105 117 -287 162 -469 116 -90 -23 -193 -101 -240 -181 -14 -24
-27 -44 -29 -44 -2 0 0 18 4 41 4 23 8 210 9 416 l2 375 -171 -3 c-94 -2 -172
-4 -173 -5z m756 -828 c124 -22 173 -142 169 -410 -1 -54 -6 -124 -13 -155
-15 -72 -48 -161 -60 -161 -5 0 -9 -6 -9 -14 0 -29 -100 -105 -164 -125 -75
-23 -222 -22 -306 3 l-26 7 2 247 c2 261 4 283 34 369 28 80 64 136 116 182
69 60 146 77 257 57z"/>
<path d="M4237 7824 c-1 -1 -38 -4 -81 -8 -44 -3 -83 -10 -86 -16 -5 -8 -6
-136 -1 -161 0 -3 7 -6 14 -6 6 0 41 -4 77 -8 36 -5 76 -9 90 -11 14 -1 28 -3
31 -3 8 -1 8 -1491 0 -1492 -3 0 -15 -2 -26 -4 -11 -2 -42 -7 -70 -10 -27 -3
-63 -9 -80 -13 l-30 -8 -3 -86 -3 -86 340 0 340 1 0 87 0 88 -42 11 c-23 6
-61 13 -85 15 -24 2 -46 6 -48 9 -5 4 -7 234 -5 411 l1 49 42 -59 c23 -32 46
-63 51 -69 8 -10 359 -487 382 -518 11 -16 29 -18 136 -19 68 0 129 1 134 2 6
1 13 2 18 0 4 -1 27 -1 52 -1 90 0 82 -9 83 89 1 63 -2 89 -11 90 -7 0 -21 3
-32 5 -11 3 -40 8 -65 11 -87 12 -95 18 -171 116 -40 52 -75 97 -79 100 -3 3
-17 21 -30 40 -13 19 -37 51 -52 70 -16 19 -32 40 -36 45 -21 29 -78 102 -89
113 -23 24 -28 16 120 176 234 252 225 244 295 251 111 10 112 11 112 109 l0
85 -62 3 c-35 2 -183 2 -330 0 l-268 -3 0 -83 c0 -102 10 -113 103 -115 42 -1
40 -5 -56 -112 -23 -25 -67 -74 -97 -109 -105 -121 -150 -165 -150 -150 -1 8
-1 277 -1 598 l0 583 -165 -2 c-91 -2 -166 -4 -167 -5z"/>
<path d="M2542 7640 l3 -155 25 2 c178 11 260 20 268 28 7 7 4 267 -4 274 -3
3 -71 6 -150 6 l-144 0 2 -155z"/>
<path d="M3445 7660 l-130 -37 0 -204 0 -204 -122 -3 -123 -3 -1 -27 c-3 -97
0 -174 6 -180 3 -4 59 -7 123 -7 l117 0 1 -405 c1 -436 5 -488 52 -571 27 -49
79 -87 147 -110 52 -17 266 -17 363 0 l73 13 -6 31 c-3 18 -7 61 -10 97 -8 95
-11 101 -41 90 -39 -15 -180 -12 -219 4 -19 8 -41 28 -50 45 -8 17 -13 31 -11
31 3 0 1 12 -6 28 -14 36 -17 731 -3 740 6 4 82 7 170 7 l160 0 1 105 0 105
-170 5 -171 5 1 241 c0 166 -3 241 -10 240 -6 0 -69 -16 -141 -36z"/>
<path d="M11190 7685 c-25 -7 -81 -22 -125 -34 -43 -12 -83 -25 -88 -30 -5 -5
-9 -99 -9 -209 l1 -199 -120 -1 c-66 0 -123 -2 -125 -5 -5 -4 -8 -127 -5 -192
1 -19 8 -20 124 -20 l122 0 2 -375 c1 -361 4 -456 18 -510 3 -14 7 -29 9 -35
8 -34 44 -90 73 -114 83 -68 253 -85 488 -47 11 2 25 4 32 5 8 1 11 14 8 39
-2 20 -6 71 -10 113 l-7 77 -32 -9 c-45 -13 -181 -11 -213 3 -39 18 -60 46
-73 98 -14 59 -19 749 -5 753 6 2 83 3 173 3 l163 -1 -2 108 c-1 92 -4 107
-18 108 -9 0 -85 1 -168 1 -136 0 -153 1 -154 16 0 9 0 119 0 245 0 125 -3
226 -7 226 -4 -1 -27 -7 -52 -14z"/>
<path d="M7800 7234 c-133 -25 -222 -84 -310 -205 l-29 -41 6 116 6 116 -179
-5 c-239 -7 -306 -12 -313 -24 -4 -5 -6 -45 -6 -87 0 -86 -9 -78 95 -89 66 -7
94 -12 118 -19 16 -5 17 -36 17 -435 0 -236 -3 -432 -6 -435 -3 -3 -27 -8 -55
-11 -175 -18 -170 -15 -168 -111 1 -44 2 -81 3 -84 2 -10 701 -5 702 5 7 55 2
158 -7 166 -6 5 -49 14 -95 21 -46 6 -86 15 -89 19 -12 17 -4 485 9 539 30
124 111 246 200 298 53 31 60 33 126 37 56 2 88 -10 126 -52 25 -27 34 -49 47
-118 3 -16 5 -229 6 -472 0 -244 4 -444 8 -444 35 -6 455 -4 463 2 14 10 12
156 -1 169 -6 6 -48 15 -95 22 -46 6 -86 13 -89 15 -2 3 -5 106 -5 231 -1 256
8 329 55 427 32 67 122 175 146 175 8 0 14 3 14 8 0 15 62 34 118 37 100 5
155 -44 178 -158 4 -18 7 -234 8 -481 l1 -449 114 2 c62 1 116 2 120 3 3 0 11
-1 16 -2 6 -1 30 -1 55 -1 48 2 49 2 124 1 27 0 51 1 53 4 6 6 6 152 0 163 -6
10 -50 18 -147 29 -25 3 -49 10 -55 15 -5 5 -10 169 -12 402 -1 215 -4 401 -6
412 -9 46 -48 135 -69 160 -45 54 -56 63 -98 88 -60 35 -129 50 -220 49 -159
-1 -304 -81 -391 -214 l-37 -57 -20 47 c-38 90 -129 173 -227 206 -65 23 -125
25 -205 10z"/>
<path d="M9858 7244 c-2 -1 -30 -6 -63 -9 -33 -4 -63 -9 -66 -11 -3 -2 -21 -6
-40 -9 -19 -3 -52 -11 -74 -17 -22 -5 -44 -11 -50 -12 -32 -5 -34 -18 -34
-196 l1 -180 41 -1 c71 -2 121 1 129 9 6 6 12 41 23 121 7 58 14 68 60 81 54
15 182 19 251 7 84 -13 145 -77 161 -164 7 -43 9 -160 2 -167 -2 -2 -42 -6
-89 -9 -134 -10 -220 -29 -335 -77 -286 -119 -403 -321 -304 -527 23 -49 69
-100 117 -133 116 -78 313 -79 456 -2 59 32 146 116 169 163 16 33 16 32 13
-78 l-3 -113 26 -1 c69 -3 215 1 296 6 50 4 102 8 117 9 15 1 30 5 34 9 12 11
11 157 -1 166 -5 5 -17 8 -25 8 -8 0 -40 4 -70 8 -30 4 -65 8 -78 10 -12 1
-25 4 -27 7 -2 2 -6 182 -8 398 -2 217 -7 405 -10 416 -13 51 -62 138 -95 171
-44 43 -136 88 -212 104 -47 10 -305 21 -312 13z m338 -785 c2 -135 -85 -280
-200 -330 -67 -29 -157 -30 -211 -4 -63 31 -95 117 -74 198 25 97 136 154 334
173 39 4 71 7 72 8 1 0 19 1 40 0 38 -1 38 -1 39 -45z"/>
<path d="M6097 7234 c-1 -1 -15 -4 -32 -7 -58 -9 -158 -49 -214 -84 -65 -42
-147 -126 -176 -180 -11 -21 -22 -40 -25 -43 -11 -10 -60 -167 -67 -215 -9
-64 -8 -288 2 -340 18 -95 34 -144 67 -207 93 -176 259 -264 501 -266 181 -1
316 38 426 125 114 90 196 246 218 413 9 67 8 267 0 332 -43 321 -238 478
-588 475 -60 0 -110 -2 -112 -3z m208 -249 c66 -19 126 -71 158 -137 43 -87
47 -110 52 -263 6 -186 -26 -298 -110 -379 -58 -57 -116 -75 -230 -73 -76 2
-99 6 -147 30 -114 56 -169 180 -170 382 -1 135 20 231 67 305 83 134 218 182
380 135z"/>
<path d="M2517 7214 c-1 -1 -40 -4 -87 -7 -124 -8 -120 -4 -120 -102 0 -73 2
-84 18 -83 15 1 38 -2 156 -17 21 -3 42 -8 47 -11 5 -3 9 -196 9 -440 0 -406
-1 -434 -17 -435 -41 -2 -92 -8 -149 -19 l-61 -12 -1 -79 c-1 -43 3 -81 7 -83
8 -5 37 -7 86 -6 16 1 147 1 203 1 6 0 32 -1 57 -1 24 -1 49 1 55 5 5 3 10 3
10 -2 0 -4 24 -7 52 -5 51 3 97 2 201 -1 36 -2 47 2 48 13 1 24 1 113 0 142
-1 16 -4 27 -8 26 -5 -1 -27 2 -51 6 -49 9 -87 15 -122 20 -14 1 -27 4 -30 4
-3 1 -5 247 -5 546 l1 544 -149 -1 c-81 -1 -149 -2 -150 -3z"/>
<path d="M9420 4978 c-25 -4 -65 -15 -88 -24 -43 -16 -44 -17 -37 -53 4 -20 8
-37 9 -38 1 -2 21 6 45 17 59 29 159 29 205 1 106 -66 69 -250 -82 -419 -16
-18 -47 -54 -68 -80 -22 -25 -59 -68 -84 -95 -40 -42 -45 -54 -42 -86 l4 -36
231 0 232 0 -1 40 0 40 -150 2 c-82 1 -162 3 -179 3 -30 0 -30 1 -9 18 11 9
43 44 70 77 27 32 56 66 64 75 9 9 29 34 45 55 17 22 35 46 42 53 17 17 72
132 79 162 10 48 5 129 -11 167 -41 97 -146 144 -275 121z"/>
<path d="M10024 4974 c-51 -18 -119 -83 -140 -133 -17 -39 -41 -117 -44 -141
-5 -45 -3 -241 2 -275 16 -99 57 -178 116 -218 52 -37 89 -46 169 -43 98 4
166 43 214 121 48 79 62 146 62 305 1 129 -7 179 -39 250 -28 62 -53 92 -102
122 -44 27 -179 34 -238 12z m169 -75 c81 -41 119 -152 117 -344 0 -82 -2 -93
-21 -182 -27 -121 -159 -178 -265 -114 -36 22 -71 88 -84 161 -13 65 -11 246
2 298 5 21 10 44 13 54 11 47 53 100 100 126 26 15 110 15 138 1z"/>
<path d="M10625 4979 c-22 -4 -58 -14 -80 -22 -37 -13 -40 -17 -39 -51 1 -20
3 -39 6 -41 2 -2 23 5 46 16 52 26 145 28 195 4 62 -29 85 -113 58 -211 -10
-39 -68 -136 -109 -185 -78 -92 -111 -131 -156 -182 -49 -55 -66 -93 -58 -127
3 -14 34 -16 230 -16 220 0 227 1 233 21 3 11 3 30 1 42 -4 22 -5 23 -178 20
-96 -1 -174 -1 -174 0 0 1 10 13 23 26 12 14 40 46 62 73 22 26 59 71 83 98
114 134 153 224 148 336 -3 61 -8 78 -34 113 -51 71 -153 105 -257 86z"/>
<path d="M5549 4916 c0 -67 0 -725 1 -741 0 -7 75 -10 210 -10 l210 0 -2 37
c-1 21 -6 38 -12 38 -6 1 -80 1 -163 1 l-152 1 2 151 2 152 150 0 150 0 0 38
0 37 -152 0 c-152 0 -153 0 -154 23 -1 12 0 27 1 32 1 6 2 58 1 118 l-2 107
164 0 165 0 -1 38 -2 37 -207 1 -208 0 -1 -60z"/>
<path d="M11289 4896 c-28 -45 -56 -90 -62 -101 -7 -10 -33 -52 -59 -93 -27
-40 -48 -77 -48 -82 0 -5 -6 -15 -14 -22 -7 -8 -21 -30 -31 -48 -10 -19 -21
-37 -24 -40 -18 -15 -45 -80 -47 -112 l-1 -38 46 -1 c25 0 108 0 183 1 l137 1
-2 -95 -2 -94 30 -4 c60 -7 61 -5 61 95 l0 92 72 3 73 3 -3 42 -3 42 -65 0
-65 0 -5 265 -5 265 -58 1 -59 0 -49 -80z m81 -187 c1 -96 1 -196 0 -222 l0
-49 -65 4 c-36 1 -65 -1 -65 -5 0 -5 -5 -5 -11 -1 -7 4 -41 6 -77 5 l-64 -2
20 33 c12 18 74 119 139 224 65 106 119 191 120 190 2 -2 3 -81 3 -177z"/>
<path d="M6963 4763 c-41 -14 -60 -29 -102 -83 l-20 -25 6 53 5 52 -46 0 -46
0 0 -37 c-1 -21 -1 -152 -1 -292 -1 -276 -2 -270 56 -267 l30 2 2 158 c4 199
20 276 68 323 19 18 44 34 57 35 13 0 28 2 33 3 6 2 17 3 26 4 11 1 15 11 14
37 -1 46 -24 57 -82 37z"/>
<path d="M7305 4768 c-98 -20 -169 -88 -195 -187 -13 -48 -15 -166 -5 -219 24
-127 118 -204 245 -205 168 -1 266 78 287 231 20 150 -10 279 -79 337 -50 42
-164 61 -253 43z m171 -101 c52 -35 78 -102 77 -200 -1 -146 -54 -222 -163
-233 -93 -9 -167 47 -188 141 -29 130 12 265 92 305 51 26 131 20 182 -13z"/>
<path d="M7997 4765 c-20 -7 -45 -19 -55 -26 -41 -33 -62 -55 -62 -68 0 -8 -3
-11 -7 -7 -4 4 -8 28 -8 53 0 46 0 46 -38 48 -20 2 -40 -1 -43 -6 -4 -7 -5
-204 -4 -801 l0 -87 43 2 42 2 1 133 c1 73 4 138 7 145 3 8 25 12 68 11 135
-2 227 40 284 131 97 155 70 391 -54 454 -49 26 -126 33 -174 16z m135 -83
c44 -25 57 -73 55 -192 -3 -130 -24 -184 -87 -226 -35 -23 -52 -28 -108 -28
-124 0 -117 -7 -118 129 -1 144 8 191 49 253 55 82 137 107 209 64z"/>
<path d="M8508 4766 c-27 -8 -48 -12 -48 -10 0 3 -11 -3 -24 -12 -20 -13 -23
-20 -16 -39 5 -13 6 -26 3 -29 -12 -11 25 -6 62 9 35 15 138 21 180 11 11 -2
23 -5 27 -5 27 -3 66 -132 48 -161 -4 -6 -31 -13 -61 -14 -141 -8 -276 -85
-294 -167 -40 -181 196 -266 329 -119 l36 40 -3 -48 -2 -47 43 -3 c40 -3 42
-1 43 25 0 15 1 120 1 234 0 188 -2 209 -21 250 -32 66 -75 90 -175 94 -50 3
-99 -1 -128 -9z m242 -325 c0 -5 -5 -33 -11 -61 -23 -110 -134 -179 -221 -138
-60 28 -57 136 5 170 59 31 227 53 227 29z"/>
<path d="M6119 4759 c-8 -5 -11 -74 -11 -230 0 -234 5 -265 49 -315 53 -61
167 -75 247 -30 23 13 76 67 76 79 0 4 3 7 8 7 4 0 5 -22 4 -50 l-4 -50 46 0
46 0 0 298 0 298 -44 -1 -44 0 -1 -163 c0 -90 -5 -181 -12 -204 -32 -121 -128
-187 -225 -154 -11 4 -29 22 -39 39 -16 27 -19 57 -20 252 -1 121 -3 223 -4
226 -2 8 -59 7 -72 -2z"/>
</g>
</svg>
